<svg xmlns="http://www.w3.org/2000/svg" width="230.013" height="175.856" viewBox="0 0 230.013 175.856"><g transform="translate(-227.81 -145.738)"><path d="M496.808,149.54a1.9,1.9,0,1,0-1.9-1.9,1.9,1.9,0,0,0,1.9,1.9" transform="translate(-108.191)" fill="#d5ebeb"/><path d="M492.29,158.577a1.9,1.9,0,1,0-1.9-1.9,1.9,1.9,0,0,0,1.9,1.9" transform="translate(-106.36 -3.661)" fill="#d5ebeb"/><path d="M501.327,158.577a1.9,1.9,0,1,0-1.9-1.9,1.9,1.9,0,0,0,1.9,1.9" transform="translate(-110.021 -3.661)" fill="#d5ebeb"/><path d="M370.285,167.614a1.9,1.9,0,1,0-1.9-1.9,1.9,1.9,0,0,0,1.9,1.9" transform="translate(-56.941 -7.321)" fill="#d5ebeb"/><path d="M478.733,167.614a1.9,1.9,0,1,0-1.9-1.9,1.9,1.9,0,0,0,1.9,1.9" transform="translate(-100.869 -7.321)" fill="#d5ebeb"/><path d="M487.771,167.614a1.9,1.9,0,1,0-1.9-1.9,1.9,1.9,0,0,0,1.9,1.9" transform="translate(-104.53 -7.321)" fill="#d5ebeb"/><path d="M496.808,167.614a1.9,1.9,0,1,0-1.9-1.9,1.9,1.9,0,0,0,1.9,1.9" transform="translate(-108.191 -7.321)" fill="#d5ebeb"/><path d="M505.846,167.614a1.9,1.9,0,1,0-1.9-1.9,1.9,1.9,0,0,0,1.9,1.9" transform="translate(-111.851 -7.321)" fill="#d5ebeb"/><path d="M230.2,176.652a1.9,1.9,0,1,0-1.9-1.9,1.9,1.9,0,0,0,1.9,1.9" transform="translate(-0.2 -10.982)" fill="#d5ebeb"/><path d="M239.242,176.652a1.9,1.9,0,1,0-1.9-1.9,1.9,1.9,0,0,0,1.9,1.9" transform="translate(-3.861 -10.982)" fill="#d5ebeb"/><path d="M248.28,176.652a1.9,1.9,0,1,0-1.9-1.9,1.9,1.9,0,0,0,1.9,1.9" transform="translate(-7.522 -10.982)" fill="#d5ebeb"/><path d="M257.317,176.652a1.9,1.9,0,1,0-1.9-1.9,1.9,1.9,0,0,0,1.9,1.9" transform="translate(-11.182 -10.982)" fill="#d5ebeb"/><path d="M266.355,176.652a1.9,1.9,0,1,0-1.9-1.9,1.9,1.9,0,0,0,1.9,1.9" transform="translate(-14.843 -10.982)" fill="#d5ebeb"/><path d="M293.467,176.652a1.9,1.9,0,1,0-1.9-1.9,1.9,1.9,0,0,0,1.9,1.9" transform="translate(-25.825 -10.982)" fill="#d5ebeb"/><path d="M302.5,176.652a1.9,1.9,0,1,0-1.9-1.9,1.9,1.9,0,0,0,1.9,1.9" transform="translate(-29.486 -10.982)" fill="#d5ebeb"/><path d="M311.542,176.652a1.9,1.9,0,1,0-1.9-1.9,1.9,1.9,0,0,0,1.9,1.9" transform="translate(-33.147 -10.982)" fill="#d5ebeb"/><path d="M320.579,176.652a1.9,1.9,0,1,0-1.9-1.9,1.9,1.9,0,0,0,1.9,1.9" transform="translate(-36.807 -10.982)" fill="#d5ebeb"/><path d="M329.616,176.652a1.9,1.9,0,1,0-1.9-1.9,1.9,1.9,0,0,0,1.9,1.9" transform="translate(-40.468 -10.982)" fill="#d5ebeb"/><path d="M338.654,176.652a1.9,1.9,0,1,0-1.9-1.9,1.9,1.9,0,0,0,1.9,1.9" transform="translate(-44.129 -10.982)" fill="#d5ebeb"/><path d="M347.691,176.652a1.9,1.9,0,1,0-1.9-1.9,1.9,1.9,0,0,0,1.9,1.9" transform="translate(-47.789 -10.982)" fill="#d5ebeb"/><path d="M356.728,176.652a1.9,1.9,0,1,0-1.9-1.9,1.9,1.9,0,0,0,1.9,1.9" transform="translate(-51.45 -10.982)" fill="#d5ebeb"/><path d="M365.766,176.652a1.9,1.9,0,1,0-1.9-1.9,1.9,1.9,0,0,0,1.9,1.9" transform="translate(-55.111 -10.982)" fill="#d5ebeb"/><path d="M374.8,176.652a1.9,1.9,0,1,0-1.9-1.9,1.9,1.9,0,0,0,1.9,1.9" transform="translate(-58.771 -10.982)" fill="#d5ebeb"/><path d="M383.841,176.652a1.9,1.9,0,1,0-1.9-1.9,1.9,1.9,0,0,0,1.9,1.9" transform="translate(-62.432 -10.982)" fill="#d5ebeb"/><path d="M392.878,176.652a1.9,1.9,0,1,0-1.9-1.9,1.9,1.9,0,0,0,1.9,1.9" transform="translate(-66.093 -10.982)" fill="#d5ebeb"/><path d="M401.916,176.652a1.9,1.9,0,1,0-1.9-1.9,1.9,1.9,0,0,0,1.9,1.9" transform="translate(-69.754 -10.982)" fill="#d5ebeb"/><path d="M465.177,176.652a1.9,1.9,0,1,0-1.9-1.9,1.9,1.9,0,0,0,1.9,1.9" transform="translate(-95.378 -10.982)" fill="#d5ebeb"/><path d="M474.215,176.652a1.9,1.9,0,1,0-1.9-1.9,1.9,1.9,0,0,0,1.9,1.9" transform="translate(-99.039 -10.982)" fill="#d5ebeb"/><path d="M483.252,176.652a1.9,1.9,0,1,0-1.9-1.9,1.9,1.9,0,0,0,1.9,1.9" transform="translate(-102.7 -10.982)" fill="#d5ebeb"/><path d="M492.29,176.652a1.9,1.9,0,1,0-1.9-1.9,1.9,1.9,0,0,0,1.9,1.9" transform="translate(-106.36 -10.982)" fill="#d5ebeb"/><path d="M501.327,176.652a1.9,1.9,0,1,0-1.9-1.9,1.9,1.9,0,0,0,1.9,1.9" transform="translate(-110.021 -10.982)" fill="#d5ebeb"/><path d="M510.365,176.652a1.9,1.9,0,1,0-1.9-1.9,1.9,1.9,0,0,0,1.9,1.9" transform="translate(-113.682 -10.982)" fill="#d5ebeb"/><path d="M519.4,176.652a1.9,1.9,0,1,0-1.9-1.9,1.9,1.9,0,0,0,1.9,1.9" transform="translate(-117.342 -10.982)" fill="#d5ebeb"/><path d="M234.723,185.689a1.9,1.9,0,1,0-1.9-1.9,1.9,1.9,0,0,0,1.9,1.9" transform="translate(-2.03 -14.643)" fill="#d5ebeb"/><path d="M243.761,185.689a1.9,1.9,0,1,0-1.9-1.9,1.9,1.9,0,0,0,1.9,1.9" transform="translate(-5.691 -14.643)" fill="#d5ebeb"/><path d="M252.8,185.689a1.9,1.9,0,1,0-1.9-1.9,1.9,1.9,0,0,0,1.9,1.9" transform="translate(-9.352 -14.643)" fill="#d5ebeb"/><path d="M261.836,185.689a1.9,1.9,0,1,0-1.9-1.9,1.9,1.9,0,0,0,1.9,1.9" transform="translate(-13.013 -14.643)" fill="#d5ebeb"/><path d="M270.873,185.689a1.9,1.9,0,1,0-1.9-1.9,1.9,1.9,0,0,0,1.9,1.9" transform="translate(-16.673 -14.643)" fill="#d5ebeb"/><path d="M279.911,185.689a1.9,1.9,0,1,0-1.9-1.9,1.9,1.9,0,0,0,1.9,1.9" transform="translate(-20.334 -14.643)" fill="#d5ebeb"/><path d="M288.948,185.689a1.9,1.9,0,1,0-1.9-1.9,1.9,1.9,0,0,0,1.9,1.9" transform="translate(-23.995 -14.643)" fill="#d5ebeb"/><path d="M297.986,185.689a1.9,1.9,0,1,0-1.9-1.9,1.9,1.9,0,0,0,1.9,1.9" transform="translate(-27.656 -14.643)" fill="#d5ebeb"/><path d="M307.023,185.689a1.9,1.9,0,1,0-1.9-1.9,1.9,1.9,0,0,0,1.9,1.9" transform="translate(-31.316 -14.643)" fill="#d5ebeb"/><path d="M316.06,185.689a1.9,1.9,0,1,0-1.9-1.9,1.9,1.9,0,0,0,1.9,1.9" transform="translate(-34.977 -14.643)" fill="#d5ebeb"/><path d="M325.1,185.689a1.9,1.9,0,1,0-1.9-1.9,1.9,1.9,0,0,0,1.9,1.9" transform="translate(-38.638 -14.643)" fill="#d5ebeb"/><path d="M334.135,185.689a1.9,1.9,0,1,0-1.9-1.9,1.9,1.9,0,0,0,1.9,1.9" transform="translate(-42.298 -14.643)" fill="#d5ebeb"/><path d="M343.172,185.689a1.9,1.9,0,1,0-1.9-1.9,1.9,1.9,0,0,0,1.9,1.9" transform="translate(-45.959 -14.643)" fill="#d5ebeb"/><path d="M352.21,185.689a1.9,1.9,0,1,0-1.9-1.9,1.9,1.9,0,0,0,1.9,1.9" transform="translate(-49.62 -14.643)" fill="#d5ebeb"/><path d="M361.247,185.689a1.9,1.9,0,1,0-1.9-1.9,1.9,1.9,0,0,0,1.9,1.9" transform="translate(-53.28 -14.643)" fill="#d5ebeb"/><path d="M370.285,185.689a1.9,1.9,0,1,0-1.9-1.9,1.9,1.9,0,0,0,1.9,1.9" transform="translate(-56.941 -14.643)" fill="#d5ebeb"/><path d="M379.322,185.689a1.9,1.9,0,1,0-1.9-1.9,1.9,1.9,0,0,0,1.9,1.9" transform="translate(-60.602 -14.643)" fill="#d5ebeb"/><path d="M388.36,185.689a1.9,1.9,0,1,0-1.9-1.9,1.9,1.9,0,0,0,1.9,1.9" transform="translate(-64.263 -14.643)" fill="#d5ebeb"/><path d="M397.4,185.689a1.9,1.9,0,1,0-1.9-1.9,1.9,1.9,0,0,0,1.9,1.9" transform="translate(-67.923 -14.643)" fill="#d5ebeb"/><path d="M406.435,185.689a1.9,1.9,0,1,0-1.9-1.9,1.9,1.9,0,0,0,1.9,1.9" transform="translate(-71.584 -14.643)" fill="#d5ebeb"/><path d="M451.621,185.689a1.9,1.9,0,1,0-1.9-1.9,1.9,1.9,0,0,0,1.9,1.9" transform="translate(-89.887 -14.643)" fill="#d5ebeb"/><path d="M460.659,185.689a1.9,1.9,0,1,0-1.9-1.9,1.9,1.9,0,0,0,1.9,1.9" transform="translate(-93.548 -14.643)" fill="#d5ebeb"/><path d="M469.7,185.689a1.9,1.9,0,1,0-1.9-1.9,1.9,1.9,0,0,0,1.9,1.9" transform="translate(-97.209 -14.643)" fill="#d5ebeb"/><path d="M478.733,185.689a1.9,1.9,0,1,0-1.9-1.9,1.9,1.9,0,0,0,1.9,1.9" transform="translate(-100.869 -14.643)" fill="#d5ebeb"/><path d="M487.771,185.689a1.9,1.9,0,1,0-1.9-1.9,1.9,1.9,0,0,0,1.9,1.9" transform="translate(-104.53 -14.643)" fill="#d5ebeb"/><path d="M496.808,185.689a1.9,1.9,0,1,0-1.9-1.9,1.9,1.9,0,0,0,1.9,1.9" transform="translate(-108.191 -14.643)" fill="#d5ebeb"/><path d="M505.846,185.689a1.9,1.9,0,1,0-1.9-1.9,1.9,1.9,0,0,0,1.9,1.9" transform="translate(-111.851 -14.643)" fill="#d5ebeb"/><path d="M514.883,185.689a1.9,1.9,0,1,0-1.9-1.9,1.9,1.9,0,0,0,1.9,1.9" transform="translate(-115.512 -14.643)" fill="#d5ebeb"/><path d="M230.2,194.726a1.9,1.9,0,1,0-1.9-1.9,1.9,1.9,0,0,0,1.9,1.9" transform="translate(-0.2 -18.303)" fill="#d5ebeb"/><path d="M239.242,194.726a1.9,1.9,0,1,0-1.9-1.9,1.9,1.9,0,0,0,1.9,1.9" transform="translate(-3.861 -18.303)" fill="#d5ebeb"/><path d="M248.28,194.726a1.9,1.9,0,1,0-1.9-1.9,1.9,1.9,0,0,0,1.9,1.9" transform="translate(-7.522 -18.303)" fill="#d5ebeb"/><path d="M257.317,194.726a1.9,1.9,0,1,0-1.9-1.9,1.9,1.9,0,0,0,1.9,1.9" transform="translate(-11.182 -18.303)" fill="#d5ebeb"/><path d="M266.355,194.726a1.9,1.9,0,1,0-1.9-1.9,1.9,1.9,0,0,0,1.9,1.9" transform="translate(-14.843 -18.303)" fill="#d5ebeb"/><path d="M275.392,194.726a1.9,1.9,0,1,0-1.9-1.9,1.9,1.9,0,0,0,1.9,1.9" transform="translate(-18.504 -18.303)" fill="#d5ebeb"/><path d="M284.43,194.726a1.9,1.9,0,1,0-1.9-1.9,1.9,1.9,0,0,0,1.9,1.9" transform="translate(-22.165 -18.303)" fill="#d5ebeb"/><path d="M293.467,194.726a1.9,1.9,0,1,0-1.9-1.9,1.9,1.9,0,0,0,1.9,1.9" transform="translate(-25.825 -18.303)" fill="#d5ebeb"/><path d="M302.5,194.726a1.9,1.9,0,1,0-1.9-1.9,1.9,1.9,0,0,0,1.9,1.9" transform="translate(-29.486 -18.303)" fill="#d5ebeb"/><path d="M311.542,194.726a1.9,1.9,0,1,0-1.9-1.9,1.9,1.9,0,0,0,1.9,1.9" transform="translate(-33.147 -18.303)" fill="#d5ebeb"/><path d="M320.579,194.726a1.9,1.9,0,1,0-1.9-1.9,1.9,1.9,0,0,0,1.9,1.9" transform="translate(-36.807 -18.303)" fill="#d5ebeb"/><path d="M329.616,194.726a1.9,1.9,0,1,0-1.9-1.9,1.9,1.9,0,0,0,1.9,1.9" transform="translate(-40.468 -18.303)" fill="#d5ebeb"/><path d="M338.654,194.726a1.9,1.9,0,1,0-1.9-1.9,1.9,1.9,0,0,0,1.9,1.9" transform="translate(-44.129 -18.303)" fill="#d5ebeb"/><path d="M347.691,194.726a1.9,1.9,0,1,0-1.9-1.9,1.9,1.9,0,0,0,1.9,1.9" transform="translate(-47.789 -18.303)" fill="#d5ebeb"/><path d="M356.728,194.726a1.9,1.9,0,1,0-1.9-1.9,1.9,1.9,0,0,0,1.9,1.9" transform="translate(-51.45 -18.303)" fill="#d5ebeb"/><path d="M365.766,194.726a1.9,1.9,0,1,0-1.9-1.9,1.9,1.9,0,0,0,1.9,1.9" transform="translate(-55.111 -18.303)" fill="#d5ebeb"/><path d="M374.8,194.726a1.9,1.9,0,1,0-1.9-1.9,1.9,1.9,0,0,0,1.9,1.9" transform="translate(-58.771 -18.303)" fill="#d5ebeb"/><path d="M383.841,194.726a1.9,1.9,0,1,0-1.9-1.9,1.9,1.9,0,0,0,1.9,1.9" transform="translate(-62.432 -18.303)" fill="#d5ebeb"/><path d="M392.878,194.726a1.9,1.9,0,1,0-1.9-1.9,1.9,1.9,0,0,0,1.9,1.9" transform="translate(-66.093 -18.303)" fill="#d5ebeb"/><path d="M401.916,194.726a1.9,1.9,0,1,0-1.9-1.9,1.9,1.9,0,0,0,1.9,1.9" transform="translate(-69.754 -18.303)" fill="#d5ebeb"/><path d="M410.953,194.726a1.9,1.9,0,1,0-1.9-1.9,1.9,1.9,0,0,0,1.9,1.9" transform="translate(-73.414 -18.303)" fill="#d5ebeb"/><path d="M438.065,194.726a1.9,1.9,0,1,0-1.9-1.9,1.9,1.9,0,0,0,1.9,1.9" transform="translate(-84.396 -18.303)" fill="#d5ebeb"/><path d="M447.1,194.726a1.9,1.9,0,1,0-1.9-1.9,1.9,1.9,0,0,0,1.9,1.9" transform="translate(-88.057 -18.303)" fill="#d5ebeb"/><path d="M456.14,194.726a1.9,1.9,0,1,0-1.9-1.9,1.9,1.9,0,0,0,1.9,1.9" transform="translate(-91.718 -18.303)" fill="#d5ebeb"/><path d="M465.177,194.726a1.9,1.9,0,1,0-1.9-1.9,1.9,1.9,0,0,0,1.9,1.9" transform="translate(-95.378 -18.303)" fill="#d5ebeb"/><path d="M474.215,194.726a1.9,1.9,0,1,0-1.9-1.9,1.9,1.9,0,0,0,1.9,1.9" transform="translate(-99.039 -18.303)" fill="#d5ebeb"/><path d="M483.252,194.726a1.9,1.9,0,1,0-1.9-1.9,1.9,1.9,0,0,0,1.9,1.9" transform="translate(-102.7 -18.303)" fill="#d5ebeb"/><path d="M492.29,194.726a1.9,1.9,0,1,0-1.9-1.9,1.9,1.9,0,0,0,1.9,1.9" transform="translate(-106.36 -18.303)" fill="#d5ebeb"/><path d="M501.327,194.726a1.9,1.9,0,1,0-1.9-1.9,1.9,1.9,0,0,0,1.9,1.9" transform="translate(-110.021 -18.303)" fill="#d5ebeb"/><path d="M510.365,194.726a1.9,1.9,0,1,0-1.9-1.9,1.9,1.9,0,0,0,1.9,1.9" transform="translate(-113.682 -18.303)" fill="#d5ebeb"/><path d="M234.723,203.764a1.9,1.9,0,1,0-1.9-1.9,1.9,1.9,0,0,0,1.9,1.9" transform="translate(-2.03 -21.964)" fill="#d5ebeb"/><path d="M243.761,203.764a1.9,1.9,0,1,0-1.9-1.9,1.9,1.9,0,0,0,1.9,1.9" transform="translate(-5.691 -21.964)" fill="#d5ebeb"/><path d="M252.8,203.764a1.9,1.9,0,1,0-1.9-1.9,1.9,1.9,0,0,0,1.9,1.9" transform="translate(-9.352 -21.964)" fill="#d5ebeb"/><path d="M261.836,203.764a1.9,1.9,0,1,0-1.9-1.9,1.9,1.9,0,0,0,1.9,1.9" transform="translate(-13.013 -21.964)" fill="#d5ebeb"/><path d="M270.873,203.764a1.9,1.9,0,1,0-1.9-1.9,1.9,1.9,0,0,0,1.9,1.9" transform="translate(-16.673 -21.964)" fill="#d5ebeb"/><path d="M279.911,203.764a1.9,1.9,0,1,0-1.9-1.9,1.9,1.9,0,0,0,1.9,1.9" transform="translate(-20.334 -21.964)" fill="#d5ebeb"/><path d="M288.948,203.764a1.9,1.9,0,1,0-1.9-1.9,1.9,1.9,0,0,0,1.9,1.9" transform="translate(-23.995 -21.964)" fill="#d5ebeb"/><path d="M297.986,203.764a1.9,1.9,0,1,0-1.9-1.9,1.9,1.9,0,0,0,1.9,1.9" transform="translate(-27.656 -21.964)" fill="#d5ebeb"/><path d="M307.023,203.764a1.9,1.9,0,1,0-1.9-1.9,1.9,1.9,0,0,0,1.9,1.9" transform="translate(-31.316 -21.964)" fill="#d5ebeb"/><path d="M316.06,203.764a1.9,1.9,0,1,0-1.9-1.9,1.9,1.9,0,0,0,1.9,1.9" transform="translate(-34.977 -21.964)" fill="#d5ebeb"/><path d="M325.1,203.764a1.9,1.9,0,1,0-1.9-1.9,1.9,1.9,0,0,0,1.9,1.9" transform="translate(-38.638 -21.964)" fill="#d5ebeb"/><path d="M334.135,203.764a1.9,1.9,0,1,0-1.9-1.9,1.9,1.9,0,0,0,1.9,1.9" transform="translate(-42.298 -21.964)" fill="#d5ebeb"/><path d="M343.172,203.764a1.9,1.9,0,1,0-1.9-1.9,1.9,1.9,0,0,0,1.9,1.9" transform="translate(-45.959 -21.964)" fill="#d5ebeb"/><path d="M352.21,203.764a1.9,1.9,0,1,0-1.9-1.9,1.9,1.9,0,0,0,1.9,1.9" transform="translate(-49.62 -21.964)" fill="#d5ebeb"/><path d="M361.247,203.764a1.9,1.9,0,1,0-1.9-1.9,1.9,1.9,0,0,0,1.9,1.9" transform="translate(-53.28 -21.964)" fill="#d5ebeb"/><path d="M370.285,203.764a1.9,1.9,0,1,0-1.9-1.9,1.9,1.9,0,0,0,1.9,1.9" transform="translate(-56.941 -21.964)" fill="#d5ebeb"/><path d="M379.322,203.764a1.9,1.9,0,1,0-1.9-1.9,1.9,1.9,0,0,0,1.9,1.9" transform="translate(-60.602 -21.964)" fill="#d5ebeb"/><path d="M388.36,203.764a1.9,1.9,0,1,0-1.9-1.9,1.9,1.9,0,0,0,1.9,1.9" transform="translate(-64.263 -21.964)" fill="#d5ebeb"/><path d="M397.4,203.764a1.9,1.9,0,1,0-1.9-1.9,1.9,1.9,0,0,0,1.9,1.9" transform="translate(-67.923 -21.964)" fill="#d5ebeb"/><path d="M406.435,203.764a1.9,1.9,0,1,0-1.9-1.9,1.9,1.9,0,0,0,1.9,1.9" transform="translate(-71.584 -21.964)" fill="#d5ebeb"/><path d="M415.472,203.764a1.9,1.9,0,1,0-1.9-1.9,1.9,1.9,0,0,0,1.9,1.9" transform="translate(-75.245 -21.964)" fill="#d5ebeb"/><path d="M433.547,203.764a1.9,1.9,0,1,0-1.9-1.9,1.9,1.9,0,0,0,1.9,1.9" transform="translate(-82.566 -21.964)" fill="#d5ebeb"/><path d="M442.584,203.764a1.9,1.9,0,1,0-1.9-1.9,1.9,1.9,0,0,0,1.9,1.9" transform="translate(-86.227 -21.964)" fill="#d5ebeb"/><path d="M451.621,203.764a1.9,1.9,0,1,0-1.9-1.9,1.9,1.9,0,0,0,1.9,1.9" transform="translate(-89.887 -21.964)" fill="#d5ebeb"/><path d="M460.659,203.764a1.9,1.9,0,1,0-1.9-1.9,1.9,1.9,0,0,0,1.9,1.9" transform="translate(-93.548 -21.964)" fill="#d5ebeb"/><path d="M469.7,203.764a1.9,1.9,0,1,0-1.9-1.9,1.9,1.9,0,0,0,1.9,1.9" transform="translate(-97.209 -21.964)" fill="#d5ebeb"/><path d="M478.733,203.764a1.9,1.9,0,1,0-1.9-1.9,1.9,1.9,0,0,0,1.9,1.9" transform="translate(-100.869 -21.964)" fill="#d5ebeb"/><path d="M487.771,203.764a1.9,1.9,0,1,0-1.9-1.9,1.9,1.9,0,0,0,1.9,1.9" transform="translate(-104.53 -21.964)" fill="#d5ebeb"/><path d="M496.808,203.764a1.9,1.9,0,1,0-1.9-1.9,1.9,1.9,0,0,0,1.9,1.9" transform="translate(-108.191 -21.964)" fill="#d5ebeb"/><path d="M505.846,203.764a1.9,1.9,0,1,0-1.9-1.9,1.9,1.9,0,0,0,1.9,1.9" transform="translate(-111.851 -21.964)" fill="#d5ebeb"/><path d="M514.883,203.764a1.9,1.9,0,1,0-1.9-1.9,1.9,1.9,0,0,0,1.9,1.9" transform="translate(-115.512 -21.964)" fill="#d5ebeb"/><path d="M257.317,212.8a1.9,1.9,0,1,0-1.9-1.9,1.9,1.9,0,0,0,1.9,1.9" transform="translate(-11.182 -25.625)" fill="#d5ebeb"/><path d="M266.355,212.8a1.9,1.9,0,1,0-1.9-1.9,1.9,1.9,0,0,0,1.9,1.9" transform="translate(-14.843 -25.625)" fill="#d5ebeb"/><path d="M275.392,212.8a1.9,1.9,0,1,0-1.9-1.9,1.9,1.9,0,0,0,1.9,1.9" transform="translate(-18.504 -25.625)" fill="#d5ebeb"/><path d="M284.43,212.8a1.9,1.9,0,1,0-1.9-1.9,1.9,1.9,0,0,0,1.9,1.9" transform="translate(-22.165 -25.625)" fill="#d5ebeb"/><path d="M293.467,212.8a1.9,1.9,0,1,0-1.9-1.9,1.9,1.9,0,0,0,1.9,1.9" transform="translate(-25.825 -25.625)" fill="#d5ebeb"/><path d="M302.5,212.8a1.9,1.9,0,1,0-1.9-1.9,1.9,1.9,0,0,0,1.9,1.9" transform="translate(-29.486 -25.625)" fill="#d5ebeb"/><path d="M311.542,212.8a1.9,1.9,0,1,0-1.9-1.9,1.9,1.9,0,0,0,1.9,1.9" transform="translate(-33.147 -25.625)" fill="#d5ebeb"/><path d="M320.579,212.8a1.9,1.9,0,1,0-1.9-1.9,1.9,1.9,0,0,0,1.9,1.9" transform="translate(-36.807 -25.625)" fill="#d5ebeb"/><path d="M329.616,212.8a1.9,1.9,0,1,0-1.9-1.9,1.9,1.9,0,0,0,1.9,1.9" transform="translate(-40.468 -25.625)" fill="#d5ebeb"/><path d="M338.654,212.8a1.9,1.9,0,1,0-1.9-1.9,1.9,1.9,0,0,0,1.9,1.9" transform="translate(-44.129 -25.625)" fill="#d5ebeb"/><path d="M347.691,212.8a1.9,1.9,0,1,0-1.9-1.9,1.9,1.9,0,0,0,1.9,1.9" transform="translate(-47.789 -25.625)" fill="#d5ebeb"/><path d="M356.728,212.8a1.9,1.9,0,1,0-1.9-1.9,1.9,1.9,0,0,0,1.9,1.9" transform="translate(-51.45 -25.625)" fill="#d5ebeb"/><path d="M365.766,212.8a1.9,1.9,0,1,0-1.9-1.9,1.9,1.9,0,0,0,1.9,1.9" transform="translate(-55.111 -25.625)" fill="#d5ebeb"/><path d="M374.8,212.8a1.9,1.9,0,1,0-1.9-1.9,1.9,1.9,0,0,0,1.9,1.9" transform="translate(-58.771 -25.625)" fill="#d5ebeb"/><path d="M383.841,212.8a1.9,1.9,0,1,0-1.9-1.9,1.9,1.9,0,0,0,1.9,1.9" transform="translate(-62.432 -25.625)" fill="#d5ebeb"/><path d="M392.878,212.8a1.9,1.9,0,1,0-1.9-1.9,1.9,1.9,0,0,0,1.9,1.9" transform="translate(-66.093 -25.625)" fill="#d5ebeb"/><path d="M401.916,212.8a1.9,1.9,0,1,0-1.9-1.9,1.9,1.9,0,0,0,1.9,1.9" transform="translate(-69.754 -25.625)" fill="#d5ebeb"/><path d="M410.953,212.8a1.9,1.9,0,1,0-1.9-1.9,1.9,1.9,0,0,0,1.9,1.9" transform="translate(-73.414 -25.625)" fill="#d5ebeb"/><path d="M419.991,212.8a1.9,1.9,0,1,0-1.9-1.9,1.9,1.9,0,0,0,1.9,1.9" transform="translate(-77.075 -25.625)" fill="#d5ebeb"/><path d="M429.028,212.8a1.9,1.9,0,1,0-1.9-1.9,1.9,1.9,0,0,0,1.9,1.9" transform="translate(-80.736 -25.625)" fill="#d5ebeb"/><path d="M438.065,212.8a1.9,1.9,0,1,0-1.9-1.9,1.9,1.9,0,0,0,1.9,1.9" transform="translate(-84.396 -25.625)" fill="#d5ebeb"/><path d="M447.1,212.8a1.9,1.9,0,1,0-1.9-1.9,1.9,1.9,0,0,0,1.9,1.9" transform="translate(-88.057 -25.625)" fill="#d5ebeb"/><path d="M456.14,212.8a1.9,1.9,0,1,0-1.9-1.9,1.9,1.9,0,0,0,1.9,1.9" transform="translate(-91.718 -25.625)" fill="#d5ebeb"/><path d="M465.177,212.8a1.9,1.9,0,1,0-1.9-1.9,1.9,1.9,0,0,0,1.9,1.9" transform="translate(-95.378 -25.625)" fill="#d5ebeb"/><path d="M474.215,212.8a1.9,1.9,0,1,0-1.9-1.9,1.9,1.9,0,0,0,1.9,1.9" transform="translate(-99.039 -25.625)" fill="#d5ebeb"/><path d="M483.252,212.8a1.9,1.9,0,1,0-1.9-1.9,1.9,1.9,0,0,0,1.9,1.9" transform="translate(-102.7 -25.625)" fill="#d5ebeb"/><path d="M492.29,212.8a1.9,1.9,0,1,0-1.9-1.9,1.9,1.9,0,0,0,1.9,1.9" transform="translate(-106.36 -25.625)" fill="#d5ebeb"/><path d="M501.327,212.8a1.9,1.9,0,1,0-1.9-1.9,1.9,1.9,0,0,0,1.9,1.9" transform="translate(-110.021 -25.625)" fill="#d5ebeb"/><path d="M510.365,212.8a1.9,1.9,0,1,0-1.9-1.9,1.9,1.9,0,0,0,1.9,1.9" transform="translate(-113.682 -25.625)" fill="#d5ebeb"/><path d="M519.4,212.8a1.9,1.9,0,1,0-1.9-1.9,1.9,1.9,0,0,0,1.9,1.9" transform="translate(-117.342 -25.625)" fill="#d5ebeb"/><path d="M261.836,221.838a1.9,1.9,0,1,0-1.9-1.9,1.9,1.9,0,0,0,1.9,1.9" transform="translate(-13.013 -29.285)" fill="#d5ebeb"/><path d="M270.873,221.838a1.9,1.9,0,1,0-1.9-1.9,1.9,1.9,0,0,0,1.9,1.9" transform="translate(-16.673 -29.285)" fill="#d5ebeb"/><path d="M279.911,221.838a1.9,1.9,0,1,0-1.9-1.9,1.9,1.9,0,0,0,1.9,1.9" transform="translate(-20.334 -29.285)" fill="#d5ebeb"/><path d="M288.948,221.838a1.9,1.9,0,1,0-1.9-1.9,1.9,1.9,0,0,0,1.9,1.9" transform="translate(-23.995 -29.285)" fill="#d5ebeb"/><path d="M297.986,221.838a1.9,1.9,0,1,0-1.9-1.9,1.9,1.9,0,0,0,1.9,1.9" transform="translate(-27.656 -29.285)" fill="#d5ebeb"/><path d="M307.023,221.838a1.9,1.9,0,1,0-1.9-1.9,1.9,1.9,0,0,0,1.9,1.9" transform="translate(-31.316 -29.285)" fill="#d5ebeb"/><path d="M316.06,221.838a1.9,1.9,0,1,0-1.9-1.9,1.9,1.9,0,0,0,1.9,1.9" transform="translate(-34.977 -29.285)" fill="#d5ebeb"/><path d="M325.1,221.838a1.9,1.9,0,1,0-1.9-1.9,1.9,1.9,0,0,0,1.9,1.9" transform="translate(-38.638 -29.285)" fill="#d5ebeb"/><path d="M334.135,221.838a1.9,1.9,0,1,0-1.9-1.9,1.9,1.9,0,0,0,1.9,1.9" transform="translate(-42.298 -29.285)" fill="#d5ebeb"/><path d="M343.172,221.838a1.9,1.9,0,1,0-1.9-1.9,1.9,1.9,0,0,0,1.9,1.9" transform="translate(-45.959 -29.285)" fill="#d5ebeb"/><path d="M352.21,221.838a1.9,1.9,0,1,0-1.9-1.9,1.9,1.9,0,0,0,1.9,1.9" transform="translate(-49.62 -29.285)" fill="#d5ebeb"/><path d="M361.247,221.838a1.9,1.9,0,1,0-1.9-1.9,1.9,1.9,0,0,0,1.9,1.9" transform="translate(-53.28 -29.285)" fill="#d5ebeb"/><path d="M370.285,221.838a1.9,1.9,0,1,0-1.9-1.9,1.9,1.9,0,0,0,1.9,1.9" transform="translate(-56.941 -29.285)" fill="#d5ebeb"/><path d="M379.322,221.838a1.9,1.9,0,1,0-1.9-1.9,1.9,1.9,0,0,0,1.9,1.9" transform="translate(-60.602 -29.285)" fill="#d5ebeb"/><path d="M388.36,221.838a1.9,1.9,0,1,0-1.9-1.9,1.9,1.9,0,0,0,1.9,1.9" transform="translate(-64.263 -29.285)" fill="#d5ebeb"/><path d="M397.4,221.838a1.9,1.9,0,1,0-1.9-1.9,1.9,1.9,0,0,0,1.9,1.9" transform="translate(-67.923 -29.285)" fill="#d5ebeb"/><path d="M406.435,221.838a1.9,1.9,0,1,0-1.9-1.9,1.9,1.9,0,0,0,1.9,1.9" transform="translate(-71.584 -29.285)" fill="#d5ebeb"/><path d="M415.472,221.838a1.9,1.9,0,1,0-1.9-1.9,1.9,1.9,0,0,0,1.9,1.9" transform="translate(-75.245 -29.285)" fill="#d5ebeb"/><path d="M424.509,221.838a1.9,1.9,0,1,0-1.9-1.9,1.9,1.9,0,0,0,1.9,1.9" transform="translate(-78.905 -29.285)" fill="#d5ebeb"/><path d="M433.547,221.838a1.9,1.9,0,1,0-1.9-1.9,1.9,1.9,0,0,0,1.9,1.9" transform="translate(-82.566 -29.285)" fill="#d5ebeb"/><path d="M442.584,221.838a1.9,1.9,0,1,0-1.9-1.9,1.9,1.9,0,0,0,1.9,1.9" transform="translate(-86.227 -29.285)" fill="#d5ebeb"/><path d="M451.621,221.838a1.9,1.9,0,1,0-1.9-1.9,1.9,1.9,0,0,0,1.9,1.9" transform="translate(-89.887 -29.285)" fill="#d5ebeb"/><path d="M460.659,221.838a1.9,1.9,0,1,0-1.9-1.9,1.9,1.9,0,0,0,1.9,1.9" transform="translate(-93.548 -29.285)" fill="#d5ebeb"/><path d="M469.7,221.838a1.9,1.9,0,1,0-1.9-1.9,1.9,1.9,0,0,0,1.9,1.9" transform="translate(-97.209 -29.285)" fill="#d5ebeb"/><path d="M478.733,221.838a1.9,1.9,0,1,0-1.9-1.9,1.9,1.9,0,0,0,1.9,1.9" transform="translate(-100.869 -29.285)" fill="#d5ebeb"/><path d="M487.771,221.838a1.9,1.9,0,1,0-1.9-1.9,1.9,1.9,0,0,0,1.9,1.9" transform="translate(-104.53 -29.285)" fill="#d5ebeb"/><path d="M496.808,221.838a1.9,1.9,0,1,0-1.9-1.9,1.9,1.9,0,0,0,1.9,1.9" transform="translate(-108.191 -29.285)" fill="#d5ebeb"/><path d="M505.846,221.838a1.9,1.9,0,1,0-1.9-1.9,1.9,1.9,0,0,0,1.9,1.9" transform="translate(-111.851 -29.285)" fill="#d5ebeb"/><path d="M284.43,230.876a1.9,1.9,0,1,0-1.9-1.9,1.9,1.9,0,0,0,1.9,1.9" transform="translate(-22.165 -32.946)" fill="#d5ebeb"/><path d="M293.467,230.876a1.9,1.9,0,1,0-1.9-1.9,1.9,1.9,0,0,0,1.9,1.9" transform="translate(-25.825 -32.946)" fill="#d5ebeb"/><path d="M302.5,230.876a1.9,1.9,0,1,0-1.9-1.9,1.9,1.9,0,0,0,1.9,1.9" transform="translate(-29.486 -32.946)" fill="#d5ebeb"/><path d="M311.542,230.876a1.9,1.9,0,1,0-1.9-1.9,1.9,1.9,0,0,0,1.9,1.9" transform="translate(-33.147 -32.946)" fill="#d5ebeb"/><path d="M320.579,230.876a1.9,1.9,0,1,0-1.9-1.9,1.9,1.9,0,0,0,1.9,1.9" transform="translate(-36.807 -32.946)" fill="#d5ebeb"/><path d="M329.616,230.876a1.9,1.9,0,1,0-1.9-1.9,1.9,1.9,0,0,0,1.9,1.9" transform="translate(-40.468 -32.946)" fill="#d5ebeb"/><path d="M338.654,230.876a1.9,1.9,0,1,0-1.9-1.9,1.9,1.9,0,0,0,1.9,1.9" transform="translate(-44.129 -32.946)" fill="#d5ebeb"/><path d="M347.691,230.876a1.9,1.9,0,1,0-1.9-1.9,1.9,1.9,0,0,0,1.9,1.9" transform="translate(-47.789 -32.946)" fill="#d5ebeb"/><path d="M356.728,230.876a1.9,1.9,0,1,0-1.9-1.9,1.9,1.9,0,0,0,1.9,1.9" transform="translate(-51.45 -32.946)" fill="#d5ebeb"/><path d="M365.766,230.876a1.9,1.9,0,1,0-1.9-1.9,1.9,1.9,0,0,0,1.9,1.9" transform="translate(-55.111 -32.946)" fill="#d5ebeb"/><path d="M374.8,230.876a1.9,1.9,0,1,0-1.9-1.9,1.9,1.9,0,0,0,1.9,1.9" transform="translate(-58.771 -32.946)" fill="#d5ebeb"/><path d="M383.841,230.876a1.9,1.9,0,1,0-1.9-1.9,1.9,1.9,0,0,0,1.9,1.9" transform="translate(-62.432 -32.946)" fill="#d5ebeb"/><path d="M392.878,230.876a1.9,1.9,0,1,0-1.9-1.9,1.9,1.9,0,0,0,1.9,1.9" transform="translate(-66.093 -32.946)" fill="#d5ebeb"/><path d="M401.916,230.876a1.9,1.9,0,1,0-1.9-1.9,1.9,1.9,0,0,0,1.9,1.9" transform="translate(-69.754 -32.946)" fill="#d5ebeb"/><path d="M410.953,230.876a1.9,1.9,0,1,0-1.9-1.9,1.9,1.9,0,0,0,1.9,1.9" transform="translate(-73.414 -32.946)" fill="#d5ebeb"/><path d="M419.991,230.876a1.9,1.9,0,1,0-1.9-1.9,1.9,1.9,0,0,0,1.9,1.9" transform="translate(-77.075 -32.946)" fill="#d5ebeb"/><path d="M429.028,230.876a1.9,1.9,0,1,0-1.9-1.9,1.9,1.9,0,0,0,1.9,1.9" transform="translate(-80.736 -32.946)" fill="#d5ebeb"/><path d="M438.065,230.876a1.9,1.9,0,1,0-1.9-1.9,1.9,1.9,0,0,0,1.9,1.9" transform="translate(-84.396 -32.946)" fill="#d5ebeb"/><path d="M447.1,230.876a1.9,1.9,0,1,0-1.9-1.9,1.9,1.9,0,0,0,1.9,1.9" transform="translate(-88.057 -32.946)" fill="#d5ebeb"/><path d="M456.14,230.876a1.9,1.9,0,1,0-1.9-1.9,1.9,1.9,0,0,0,1.9,1.9" transform="translate(-91.718 -32.946)" fill="#d5ebeb"/><path d="M465.177,230.876a1.9,1.9,0,1,0-1.9-1.9,1.9,1.9,0,0,0,1.9,1.9" transform="translate(-95.378 -32.946)" fill="#d5ebeb"/><path d="M474.215,230.876a1.9,1.9,0,1,0-1.9-1.9,1.9,1.9,0,0,0,1.9,1.9" transform="translate(-99.039 -32.946)" fill="#d5ebeb"/><path d="M483.252,230.876a1.9,1.9,0,1,0-1.9-1.9,1.9,1.9,0,0,0,1.9,1.9" transform="translate(-102.7 -32.946)" fill="#d5ebeb"/><path d="M492.29,230.876a1.9,1.9,0,1,0-1.9-1.9,1.9,1.9,0,0,0,1.9,1.9" transform="translate(-106.36 -32.946)" fill="#d5ebeb"/><path d="M501.327,230.876a1.9,1.9,0,1,0-1.9-1.9,1.9,1.9,0,0,0,1.9,1.9" transform="translate(-110.021 -32.946)" fill="#d5ebeb"/><path d="M510.365,230.876a1.9,1.9,0,1,0-1.9-1.9,1.9,1.9,0,0,0,1.9,1.9" transform="translate(-113.682 -32.946)" fill="#d5ebeb"/><path d="M519.4,230.876a1.9,1.9,0,1,0-1.9-1.9,1.9,1.9,0,0,0,1.9,1.9" transform="translate(-117.342 -32.946)" fill="#d5ebeb"/><path d="M528.44,230.876a1.9,1.9,0,1,0-1.9-1.9,1.9,1.9,0,0,0,1.9,1.9" transform="translate(-121.003 -32.946)" fill="#d5ebeb"/><path d="M288.948,239.913a1.9,1.9,0,1,0-1.9-1.9,1.9,1.9,0,0,0,1.9,1.9" transform="translate(-23.995 -36.607)" fill="#d5ebeb"/><path d="M297.986,239.913a1.9,1.9,0,1,0-1.9-1.9,1.9,1.9,0,0,0,1.9,1.9" transform="translate(-27.656 -36.607)" fill="#d5ebeb"/><path d="M307.023,239.913a1.9,1.9,0,1,0-1.9-1.9,1.9,1.9,0,0,0,1.9,1.9" transform="translate(-31.316 -36.607)" fill="#d5ebeb"/><path d="M316.06,239.913a1.9,1.9,0,1,0-1.9-1.9,1.9,1.9,0,0,0,1.9,1.9" transform="translate(-34.977 -36.607)" fill="#d5ebeb"/><path d="M325.1,239.913a1.9,1.9,0,1,0-1.9-1.9,1.9,1.9,0,0,0,1.9,1.9" transform="translate(-38.638 -36.607)" fill="#d5ebeb"/><path d="M334.135,239.913a1.9,1.9,0,1,0-1.9-1.9,1.9,1.9,0,0,0,1.9,1.9" transform="translate(-42.298 -36.607)" fill="#d5ebeb"/><path d="M343.172,239.913a1.9,1.9,0,1,0-1.9-1.9,1.9,1.9,0,0,0,1.9,1.9" transform="translate(-45.959 -36.607)" fill="#d5ebeb"/><path d="M352.21,239.913a1.9,1.9,0,1,0-1.9-1.9,1.9,1.9,0,0,0,1.9,1.9" transform="translate(-49.62 -36.607)" fill="#d5ebeb"/><path d="M361.247,239.913a1.9,1.9,0,1,0-1.9-1.9,1.9,1.9,0,0,0,1.9,1.9" transform="translate(-53.28 -36.607)" fill="#d5ebeb"/><path d="M370.285,239.913a1.9,1.9,0,1,0-1.9-1.9,1.9,1.9,0,0,0,1.9,1.9" transform="translate(-56.941 -36.607)" fill="#d5ebeb"/><path d="M379.322,239.913a1.9,1.9,0,1,0-1.9-1.9,1.9,1.9,0,0,0,1.9,1.9" transform="translate(-60.602 -36.607)" fill="#d5ebeb"/><path d="M388.36,239.913a1.9,1.9,0,1,0-1.9-1.9,1.9,1.9,0,0,0,1.9,1.9" transform="translate(-64.263 -36.607)" fill="#d5ebeb"/><path d="M397.4,239.913a1.9,1.9,0,1,0-1.9-1.9,1.9,1.9,0,0,0,1.9,1.9" transform="translate(-67.923 -36.607)" fill="#d5ebeb"/><path d="M406.435,239.913a1.9,1.9,0,1,0-1.9-1.9,1.9,1.9,0,0,0,1.9,1.9" transform="translate(-71.584 -36.607)" fill="#d5ebeb"/><path d="M415.472,239.913a1.9,1.9,0,1,0-1.9-1.9,1.9,1.9,0,0,0,1.9,1.9" transform="translate(-75.245 -36.607)" fill="#d5ebeb"/><path d="M424.509,239.913a1.9,1.9,0,1,0-1.9-1.9,1.9,1.9,0,0,0,1.9,1.9" transform="translate(-78.905 -36.607)" fill="#d5ebeb"/><path d="M433.547,239.913a1.9,1.9,0,1,0-1.9-1.9,1.9,1.9,0,0,0,1.9,1.9" transform="translate(-82.566 -36.607)" fill="#d5ebeb"/><path d="M442.584,239.913a1.9,1.9,0,1,0-1.9-1.9,1.9,1.9,0,0,0,1.9,1.9" transform="translate(-86.227 -36.607)" fill="#d5ebeb"/><path d="M451.621,239.913a1.9,1.9,0,1,0-1.9-1.9,1.9,1.9,0,0,0,1.9,1.9" transform="translate(-89.887 -36.607)" fill="#d5ebeb"/><path d="M460.659,239.913a1.9,1.9,0,1,0-1.9-1.9,1.9,1.9,0,0,0,1.9,1.9" transform="translate(-93.548 -36.607)" fill="#d5ebeb"/><path d="M469.7,239.913a1.9,1.9,0,1,0-1.9-1.9,1.9,1.9,0,0,0,1.9,1.9" transform="translate(-97.209 -36.607)" fill="#d5ebeb"/><path d="M478.733,239.913a1.9,1.9,0,1,0-1.9-1.9,1.9,1.9,0,0,0,1.9,1.9" transform="translate(-100.869 -36.607)" fill="#d5ebeb"/><path d="M487.771,239.913a1.9,1.9,0,1,0-1.9-1.9,1.9,1.9,0,0,0,1.9,1.9" transform="translate(-104.53 -36.607)" fill="#d5ebeb"/><path d="M496.808,239.913a1.9,1.9,0,1,0-1.9-1.9,1.9,1.9,0,0,0,1.9,1.9" transform="translate(-108.191 -36.607)" fill="#d5ebeb"/><path d="M505.846,239.913a1.9,1.9,0,1,0-1.9-1.9,1.9,1.9,0,0,0,1.9,1.9" transform="translate(-111.851 -36.607)" fill="#d5ebeb"/><path d="M514.883,239.913a1.9,1.9,0,1,0-1.9-1.9,1.9,1.9,0,0,0,1.9,1.9" transform="translate(-115.512 -36.607)" fill="#d5ebeb"/><path d="M523.921,239.913a1.9,1.9,0,1,0-1.9-1.9,1.9,1.9,0,0,0,1.9,1.9" transform="translate(-119.173 -36.607)" fill="#d5ebeb"/><path d="M532.958,239.913a1.9,1.9,0,1,0-1.9-1.9,1.9,1.9,0,0,0,1.9,1.9" transform="translate(-122.834 -36.607)" fill="#d5ebeb"/><path d="M284.43,248.951a1.9,1.9,0,1,0-1.9-1.9,1.9,1.9,0,0,0,1.9,1.9" transform="translate(-22.165 -40.267)" fill="#d5ebeb"/><path d="M293.467,248.951a1.9,1.9,0,1,0-1.9-1.9,1.9,1.9,0,0,0,1.9,1.9" transform="translate(-25.825 -40.267)" fill="#d5ebeb"/><path d="M302.5,248.951a1.9,1.9,0,1,0-1.9-1.9,1.9,1.9,0,0,0,1.9,1.9" transform="translate(-29.486 -40.267)" fill="#d5ebeb"/><path d="M311.542,248.951a1.9,1.9,0,1,0-1.9-1.9,1.9,1.9,0,0,0,1.9,1.9" transform="translate(-33.147 -40.267)" fill="#d5ebeb"/><path d="M320.579,248.951a1.9,1.9,0,1,0-1.9-1.9,1.9,1.9,0,0,0,1.9,1.9" transform="translate(-36.807 -40.267)" fill="#d5ebeb"/><path d="M329.616,248.951a1.9,1.9,0,1,0-1.9-1.9,1.9,1.9,0,0,0,1.9,1.9" transform="translate(-40.468 -40.267)" fill="#d5ebeb"/><path d="M338.654,248.951a1.9,1.9,0,1,0-1.9-1.9,1.9,1.9,0,0,0,1.9,1.9" transform="translate(-44.129 -40.267)" fill="#d5ebeb"/><path d="M347.691,248.951a1.9,1.9,0,1,0-1.9-1.9,1.9,1.9,0,0,0,1.9,1.9" transform="translate(-47.789 -40.267)" fill="#d5ebeb"/><path d="M356.728,248.951a1.9,1.9,0,1,0-1.9-1.9,1.9,1.9,0,0,0,1.9,1.9" transform="translate(-51.45 -40.267)" fill="#d5ebeb"/><path d="M365.766,248.951a1.9,1.9,0,1,0-1.9-1.9,1.9,1.9,0,0,0,1.9,1.9" transform="translate(-55.111 -40.267)" fill="#d5ebeb"/><path d="M374.8,248.951a1.9,1.9,0,1,0-1.9-1.9,1.9,1.9,0,0,0,1.9,1.9" transform="translate(-58.771 -40.267)" fill="#d5ebeb"/><path d="M383.841,248.951a1.9,1.9,0,1,0-1.9-1.9,1.9,1.9,0,0,0,1.9,1.9" transform="translate(-62.432 -40.267)" fill="#d5ebeb"/><path d="M392.878,248.951a1.9,1.9,0,1,0-1.9-1.9,1.9,1.9,0,0,0,1.9,1.9" transform="translate(-66.093 -40.267)" fill="#d5ebeb"/><path d="M401.916,248.951a1.9,1.9,0,1,0-1.9-1.9,1.9,1.9,0,0,0,1.9,1.9" transform="translate(-69.754 -40.267)" fill="#d5ebeb"/><path d="M410.953,248.951a1.9,1.9,0,1,0-1.9-1.9,1.9,1.9,0,0,0,1.9,1.9" transform="translate(-73.414 -40.267)" fill="#d5ebeb"/><path d="M419.991,248.951a1.9,1.9,0,1,0-1.9-1.9,1.9,1.9,0,0,0,1.9,1.9" transform="translate(-77.075 -40.267)" fill="#d5ebeb"/><path d="M429.028,248.951a1.9,1.9,0,1,0-1.9-1.9,1.9,1.9,0,0,0,1.9,1.9" transform="translate(-80.736 -40.267)" fill="#d5ebeb"/><path d="M438.065,248.951a1.9,1.9,0,1,0-1.9-1.9,1.9,1.9,0,0,0,1.9,1.9" transform="translate(-84.396 -40.267)" fill="#d5ebeb"/><path d="M447.1,248.951a1.9,1.9,0,1,0-1.9-1.9,1.9,1.9,0,0,0,1.9,1.9" transform="translate(-88.057 -40.267)" fill="#d5ebeb"/><path d="M456.14,248.951a1.9,1.9,0,1,0-1.9-1.9,1.9,1.9,0,0,0,1.9,1.9" transform="translate(-91.718 -40.267)" fill="#d5ebeb"/><path d="M465.177,248.951a1.9,1.9,0,1,0-1.9-1.9,1.9,1.9,0,0,0,1.9,1.9" transform="translate(-95.378 -40.267)" fill="#d5ebeb"/><path d="M474.215,248.951a1.9,1.9,0,1,0-1.9-1.9,1.9,1.9,0,0,0,1.9,1.9" transform="translate(-99.039 -40.267)" fill="#d5ebeb"/><path d="M483.252,248.951a1.9,1.9,0,1,0-1.9-1.9,1.9,1.9,0,0,0,1.9,1.9" transform="translate(-102.7 -40.267)" fill="#d5ebeb"/><path d="M492.29,248.951a1.9,1.9,0,1,0-1.9-1.9,1.9,1.9,0,0,0,1.9,1.9" transform="translate(-106.36 -40.267)" fill="#d5ebeb"/><path d="M501.327,248.951a1.9,1.9,0,1,0-1.9-1.9,1.9,1.9,0,0,0,1.9,1.9" transform="translate(-110.021 -40.267)" fill="#d5ebeb"/><path d="M510.365,248.951a1.9,1.9,0,1,0-1.9-1.9,1.9,1.9,0,0,0,1.9,1.9" transform="translate(-113.682 -40.267)" fill="#d5ebeb"/><path d="M519.4,248.951a1.9,1.9,0,1,0-1.9-1.9,1.9,1.9,0,0,0,1.9,1.9" transform="translate(-117.342 -40.267)" fill="#d5ebeb"/><path d="M528.44,248.951a1.9,1.9,0,1,0-1.9-1.9,1.9,1.9,0,0,0,1.9,1.9" transform="translate(-121.003 -40.267)" fill="#d5ebeb"/><path d="M537.477,248.951a1.9,1.9,0,1,0-1.9-1.9,1.9,1.9,0,0,0,1.9,1.9" transform="translate(-124.664 -40.267)" fill="#d5ebeb"/><path d="M325.1,257.988a1.9,1.9,0,1,0-1.9-1.9,1.9,1.9,0,0,0,1.9,1.9" transform="translate(-38.638 -43.928)" fill="#d5ebeb"/><path d="M334.135,257.988a1.9,1.9,0,1,0-1.9-1.9,1.9,1.9,0,0,0,1.9,1.9" transform="translate(-42.298 -43.928)" fill="#d5ebeb"/><path d="M343.172,257.988a1.9,1.9,0,1,0-1.9-1.9,1.9,1.9,0,0,0,1.9,1.9" transform="translate(-45.959 -43.928)" fill="#d5ebeb"/><path d="M352.21,257.988a1.9,1.9,0,1,0-1.9-1.9,1.9,1.9,0,0,0,1.9,1.9" transform="translate(-49.62 -43.928)" fill="#d5ebeb"/><path d="M361.247,257.988a1.9,1.9,0,1,0-1.9-1.9,1.9,1.9,0,0,0,1.9,1.9" transform="translate(-53.28 -43.928)" fill="#d5ebeb"/><path d="M370.285,257.988a1.9,1.9,0,1,0-1.9-1.9,1.9,1.9,0,0,0,1.9,1.9" transform="translate(-56.941 -43.928)" fill="#d5ebeb"/><path d="M379.322,257.988a1.9,1.9,0,1,0-1.9-1.9,1.9,1.9,0,0,0,1.9,1.9" transform="translate(-60.602 -43.928)" fill="#d5ebeb"/><path d="M388.36,257.988a1.9,1.9,0,1,0-1.9-1.9,1.9,1.9,0,0,0,1.9,1.9" transform="translate(-64.263 -43.928)" fill="#d5ebeb"/><path d="M397.4,257.988a1.9,1.9,0,1,0-1.9-1.9,1.9,1.9,0,0,0,1.9,1.9" transform="translate(-67.923 -43.928)" fill="#d5ebeb"/><path d="M406.435,257.988a1.9,1.9,0,1,0-1.9-1.9,1.9,1.9,0,0,0,1.9,1.9" transform="translate(-71.584 -43.928)" fill="#d5ebeb"/><path d="M415.472,257.988a1.9,1.9,0,1,0-1.9-1.9,1.9,1.9,0,0,0,1.9,1.9" transform="translate(-75.245 -43.928)" fill="#d5ebeb"/><path d="M424.509,257.988a1.9,1.9,0,1,0-1.9-1.9,1.9,1.9,0,0,0,1.9,1.9" transform="translate(-78.905 -43.928)" fill="#d5ebeb"/><path d="M433.547,257.988a1.9,1.9,0,1,0-1.9-1.9,1.9,1.9,0,0,0,1.9,1.9" transform="translate(-82.566 -43.928)" fill="#d5ebeb"/><path d="M442.584,257.988a1.9,1.9,0,1,0-1.9-1.9,1.9,1.9,0,0,0,1.9,1.9" transform="translate(-86.227 -43.928)" fill="#d5ebeb"/><path d="M451.621,257.988a1.9,1.9,0,1,0-1.9-1.9,1.9,1.9,0,0,0,1.9,1.9" transform="translate(-89.887 -43.928)" fill="#d5ebeb"/><path d="M460.659,257.988a1.9,1.9,0,1,0-1.9-1.9,1.9,1.9,0,0,0,1.9,1.9" transform="translate(-93.548 -43.928)" fill="#d5ebeb"/><path d="M469.7,257.988a1.9,1.9,0,1,0-1.9-1.9,1.9,1.9,0,0,0,1.9,1.9" transform="translate(-97.209 -43.928)" fill="#d5ebeb"/><path d="M478.733,257.988a1.9,1.9,0,1,0-1.9-1.9,1.9,1.9,0,0,0,1.9,1.9" transform="translate(-100.869 -43.928)" fill="#d5ebeb"/><path d="M487.771,257.988a1.9,1.9,0,1,0-1.9-1.9,1.9,1.9,0,0,0,1.9,1.9" transform="translate(-104.53 -43.928)" fill="#d5ebeb"/><path d="M496.808,257.988a1.9,1.9,0,1,0-1.9-1.9,1.9,1.9,0,0,0,1.9,1.9" transform="translate(-108.191 -43.928)" fill="#d5ebeb"/><path d="M505.846,257.988a1.9,1.9,0,1,0-1.9-1.9,1.9,1.9,0,0,0,1.9,1.9" transform="translate(-111.851 -43.928)" fill="#d5ebeb"/><path d="M514.883,257.988a1.9,1.9,0,1,0-1.9-1.9,1.9,1.9,0,0,0,1.9,1.9" transform="translate(-115.512 -43.928)" fill="#d5ebeb"/><path d="M523.921,257.988a1.9,1.9,0,1,0-1.9-1.9,1.9,1.9,0,0,0,1.9,1.9" transform="translate(-119.173 -43.928)" fill="#d5ebeb"/><path d="M532.958,257.988a1.9,1.9,0,1,0-1.9-1.9,1.9,1.9,0,0,0,1.9,1.9" transform="translate(-122.834 -43.928)" fill="#d5ebeb"/><path d="M542,257.988a1.9,1.9,0,1,0-1.9-1.9,1.9,1.9,0,0,0,1.9,1.9" transform="translate(-126.494 -43.928)" fill="#d5ebeb"/><path d="M329.616,267.026a1.9,1.9,0,1,0-1.9-1.9,1.9,1.9,0,0,0,1.9,1.9" transform="translate(-40.468 -47.589)" fill="#d5ebeb"/><path d="M338.654,267.026a1.9,1.9,0,1,0-1.9-1.9,1.9,1.9,0,0,0,1.9,1.9" transform="translate(-44.129 -47.589)" fill="#d5ebeb"/><path d="M347.691,267.026a1.9,1.9,0,1,0-1.9-1.9,1.9,1.9,0,0,0,1.9,1.9" transform="translate(-47.789 -47.589)" fill="#d5ebeb"/><path d="M356.728,267.026a1.9,1.9,0,1,0-1.9-1.9,1.9,1.9,0,0,0,1.9,1.9" transform="translate(-51.45 -47.589)" fill="#d5ebeb"/><path d="M365.766,267.026a1.9,1.9,0,1,0-1.9-1.9,1.9,1.9,0,0,0,1.9,1.9" transform="translate(-55.111 -47.589)" fill="#d5ebeb"/><path d="M374.8,267.026a1.9,1.9,0,1,0-1.9-1.9,1.9,1.9,0,0,0,1.9,1.9" transform="translate(-58.771 -47.589)" fill="#d5ebeb"/><path d="M383.841,267.026a1.9,1.9,0,1,0-1.9-1.9,1.9,1.9,0,0,0,1.9,1.9" transform="translate(-62.432 -47.589)" fill="#d5ebeb"/><path d="M392.878,267.026a1.9,1.9,0,1,0-1.9-1.9,1.9,1.9,0,0,0,1.9,1.9" transform="translate(-66.093 -47.589)" fill="#d5ebeb"/><path d="M401.916,267.026a1.9,1.9,0,1,0-1.9-1.9,1.9,1.9,0,0,0,1.9,1.9" transform="translate(-69.754 -47.589)" fill="#d5ebeb"/><path d="M410.953,267.026a1.9,1.9,0,1,0-1.9-1.9,1.9,1.9,0,0,0,1.9,1.9" transform="translate(-73.414 -47.589)" fill="#d5ebeb"/><path d="M419.991,267.026a1.9,1.9,0,1,0-1.9-1.9,1.9,1.9,0,0,0,1.9,1.9" transform="translate(-77.075 -47.589)" fill="#d5ebeb"/><path d="M429.028,267.026a1.9,1.9,0,1,0-1.9-1.9,1.9,1.9,0,0,0,1.9,1.9" transform="translate(-80.736 -47.589)" fill="#d5ebeb"/><path d="M438.065,267.026a1.9,1.9,0,1,0-1.9-1.9,1.9,1.9,0,0,0,1.9,1.9" transform="translate(-84.396 -47.589)" fill="#d5ebeb"/><path d="M447.1,267.026a1.9,1.9,0,1,0-1.9-1.9,1.9,1.9,0,0,0,1.9,1.9" transform="translate(-88.057 -47.589)" fill="#d5ebeb"/><path d="M456.14,267.026a1.9,1.9,0,1,0-1.9-1.9,1.9,1.9,0,0,0,1.9,1.9" transform="translate(-91.718 -47.589)" fill="#d5ebeb"/><path d="M465.177,267.026a1.9,1.9,0,1,0-1.9-1.9,1.9,1.9,0,0,0,1.9,1.9" transform="translate(-95.378 -47.589)" fill="#d5ebeb"/><path d="M474.215,267.026a1.9,1.9,0,1,0-1.9-1.9,1.9,1.9,0,0,0,1.9,1.9" transform="translate(-99.039 -47.589)" fill="#d5ebeb"/><path d="M483.252,267.026a1.9,1.9,0,1,0-1.9-1.9,1.9,1.9,0,0,0,1.9,1.9" transform="translate(-102.7 -47.589)" fill="#d5ebeb"/><path d="M492.29,267.026a1.9,1.9,0,1,0-1.9-1.9,1.9,1.9,0,0,0,1.9,1.9" transform="translate(-106.36 -47.589)" fill="#d5ebeb"/><path d="M501.327,267.026a1.9,1.9,0,1,0-1.9-1.9,1.9,1.9,0,0,0,1.9,1.9" transform="translate(-110.021 -47.589)" fill="#d5ebeb"/><path d="M510.365,267.026a1.9,1.9,0,1,0-1.9-1.9,1.9,1.9,0,0,0,1.9,1.9" transform="translate(-113.682 -47.589)" fill="#d5ebeb"/><path d="M519.4,267.026a1.9,1.9,0,1,0-1.9-1.9,1.9,1.9,0,0,0,1.9,1.9" transform="translate(-117.342 -47.589)" fill="#d5ebeb"/><path d="M528.44,267.026a1.9,1.9,0,1,0-1.9-1.9,1.9,1.9,0,0,0,1.9,1.9" transform="translate(-121.003 -47.589)" fill="#d5ebeb"/><path d="M537.477,267.026a1.9,1.9,0,1,0-1.9-1.9,1.9,1.9,0,0,0,1.9,1.9" transform="translate(-124.664 -47.589)" fill="#d5ebeb"/><path d="M352.21,276.063a1.9,1.9,0,1,0-1.9-1.9,1.9,1.9,0,0,0,1.9,1.9" transform="translate(-49.62 -51.249)" fill="#d5ebeb"/><path d="M361.247,276.063a1.9,1.9,0,1,0-1.9-1.9,1.9,1.9,0,0,0,1.9,1.9" transform="translate(-53.28 -51.249)" fill="#d5ebeb"/><path d="M370.285,276.063a1.9,1.9,0,1,0-1.9-1.9,1.9,1.9,0,0,0,1.9,1.9" transform="translate(-56.941 -51.249)" fill="#d5ebeb"/><path d="M379.322,276.063a1.9,1.9,0,1,0-1.9-1.9,1.9,1.9,0,0,0,1.9,1.9" transform="translate(-60.602 -51.249)" fill="#d5ebeb"/><path d="M388.36,276.063a1.9,1.9,0,1,0-1.9-1.9,1.9,1.9,0,0,0,1.9,1.9" transform="translate(-64.263 -51.249)" fill="#d5ebeb"/><path d="M397.4,276.063a1.9,1.9,0,1,0-1.9-1.9,1.9,1.9,0,0,0,1.9,1.9" transform="translate(-67.923 -51.249)" fill="#d5ebeb"/><path d="M406.435,276.063a1.9,1.9,0,1,0-1.9-1.9,1.9,1.9,0,0,0,1.9,1.9" transform="translate(-71.584 -51.249)" fill="#d5ebeb"/><path d="M415.472,276.063a1.9,1.9,0,1,0-1.9-1.9,1.9,1.9,0,0,0,1.9,1.9" transform="translate(-75.245 -51.249)" fill="#d5ebeb"/><path d="M424.509,276.063a1.9,1.9,0,1,0-1.9-1.9,1.9,1.9,0,0,0,1.9,1.9" transform="translate(-78.905 -51.249)" fill="#d5ebeb"/><path d="M433.547,276.063a1.9,1.9,0,1,0-1.9-1.9,1.9,1.9,0,0,0,1.9,1.9" transform="translate(-82.566 -51.249)" fill="#d5ebeb"/><path d="M442.584,276.063a1.9,1.9,0,1,0-1.9-1.9,1.9,1.9,0,0,0,1.9,1.9" transform="translate(-86.227 -51.249)" fill="#d5ebeb"/><path d="M451.621,276.063a1.9,1.9,0,1,0-1.9-1.9,1.9,1.9,0,0,0,1.9,1.9" transform="translate(-89.887 -51.249)" fill="#d5ebeb"/><path d="M460.659,276.063a1.9,1.9,0,1,0-1.9-1.9,1.9,1.9,0,0,0,1.9,1.9" transform="translate(-93.548 -51.249)" fill="#d5ebeb"/><path d="M469.7,276.063a1.9,1.9,0,1,0-1.9-1.9,1.9,1.9,0,0,0,1.9,1.9" transform="translate(-97.209 -51.249)" fill="#d5ebeb"/><path d="M478.733,276.063a1.9,1.9,0,1,0-1.9-1.9,1.9,1.9,0,0,0,1.9,1.9" transform="translate(-100.869 -51.249)" fill="#d5ebeb"/><path d="M487.771,276.063a1.9,1.9,0,1,0-1.9-1.9,1.9,1.9,0,0,0,1.9,1.9" transform="translate(-104.53 -51.249)" fill="#d5ebeb"/><path d="M496.808,276.063a1.9,1.9,0,1,0-1.9-1.9,1.9,1.9,0,0,0,1.9,1.9" transform="translate(-108.191 -51.249)" fill="#d5ebeb"/><path d="M505.846,276.063a1.9,1.9,0,1,0-1.9-1.9,1.9,1.9,0,0,0,1.9,1.9" transform="translate(-111.851 -51.249)" fill="#d5ebeb"/><path d="M514.883,276.063a1.9,1.9,0,1,0-1.9-1.9,1.9,1.9,0,0,0,1.9,1.9" transform="translate(-115.512 -51.249)" fill="#d5ebeb"/><path d="M523.921,276.063a1.9,1.9,0,1,0-1.9-1.9,1.9,1.9,0,0,0,1.9,1.9" transform="translate(-119.173 -51.249)" fill="#d5ebeb"/><path d="M532.958,276.063a1.9,1.9,0,1,0-1.9-1.9,1.9,1.9,0,0,0,1.9,1.9" transform="translate(-122.834 -51.249)" fill="#d5ebeb"/><path d="M542,276.063a1.9,1.9,0,1,0-1.9-1.9,1.9,1.9,0,0,0,1.9,1.9" transform="translate(-126.494 -51.249)" fill="#d5ebeb"/><path d="M338.654,285.1a1.9,1.9,0,1,0-1.9-1.9,1.9,1.9,0,0,0,1.9,1.9" transform="translate(-44.129 -54.91)" fill="#d5ebeb"/><path d="M347.691,285.1a1.9,1.9,0,1,0-1.9-1.9,1.9,1.9,0,0,0,1.9,1.9" transform="translate(-47.789 -54.91)" fill="#d5ebeb"/><path d="M356.728,285.1a1.9,1.9,0,1,0-1.9-1.9,1.9,1.9,0,0,0,1.9,1.9" transform="translate(-51.45 -54.91)" fill="#d5ebeb"/><path d="M365.766,285.1a1.9,1.9,0,1,0-1.9-1.9,1.9,1.9,0,0,0,1.9,1.9" transform="translate(-55.111 -54.91)" fill="#d5ebeb"/><path d="M374.8,285.1a1.9,1.9,0,1,0-1.9-1.9,1.9,1.9,0,0,0,1.9,1.9" transform="translate(-58.771 -54.91)" fill="#d5ebeb"/><path d="M383.841,285.1a1.9,1.9,0,1,0-1.9-1.9,1.9,1.9,0,0,0,1.9,1.9" transform="translate(-62.432 -54.91)" fill="#d5ebeb"/><path d="M392.878,285.1a1.9,1.9,0,1,0-1.9-1.9,1.9,1.9,0,0,0,1.9,1.9" transform="translate(-66.093 -54.91)" fill="#d5ebeb"/><path d="M401.916,285.1a1.9,1.9,0,1,0-1.9-1.9,1.9,1.9,0,0,0,1.9,1.9" transform="translate(-69.754 -54.91)" fill="#d5ebeb"/><path d="M410.953,285.1a1.9,1.9,0,1,0-1.9-1.9,1.9,1.9,0,0,0,1.9,1.9" transform="translate(-73.414 -54.91)" fill="#d5ebeb"/><path d="M419.991,285.1a1.9,1.9,0,1,0-1.9-1.9,1.9,1.9,0,0,0,1.9,1.9" transform="translate(-77.075 -54.91)" fill="#d5ebeb"/><path d="M429.028,285.1a1.9,1.9,0,1,0-1.9-1.9,1.9,1.9,0,0,0,1.9,1.9" transform="translate(-80.736 -54.91)" fill="#d5ebeb"/><path d="M438.065,285.1a1.9,1.9,0,1,0-1.9-1.9,1.9,1.9,0,0,0,1.9,1.9" transform="translate(-84.396 -54.91)" fill="#d5ebeb"/><path d="M447.1,285.1a1.9,1.9,0,1,0-1.9-1.9,1.9,1.9,0,0,0,1.9,1.9" transform="translate(-88.057 -54.91)" fill="#d5ebeb"/><path d="M456.14,285.1a1.9,1.9,0,1,0-1.9-1.9,1.9,1.9,0,0,0,1.9,1.9" transform="translate(-91.718 -54.91)" fill="#d5ebeb"/><path d="M465.177,285.1a1.9,1.9,0,1,0-1.9-1.9,1.9,1.9,0,0,0,1.9,1.9" transform="translate(-95.378 -54.91)" fill="#d5ebeb"/><path d="M474.215,285.1a1.9,1.9,0,1,0-1.9-1.9,1.9,1.9,0,0,0,1.9,1.9" transform="translate(-99.039 -54.91)" fill="#d5ebeb"/><path d="M483.252,285.1a1.9,1.9,0,1,0-1.9-1.9,1.9,1.9,0,0,0,1.9,1.9" transform="translate(-102.7 -54.91)" fill="#d5ebeb"/><path d="M492.29,285.1a1.9,1.9,0,1,0-1.9-1.9,1.9,1.9,0,0,0,1.9,1.9" transform="translate(-106.36 -54.91)" fill="#d5ebeb"/><path d="M501.327,285.1a1.9,1.9,0,1,0-1.9-1.9,1.9,1.9,0,0,0,1.9,1.9" transform="translate(-110.021 -54.91)" fill="#d5ebeb"/><path d="M510.365,285.1a1.9,1.9,0,1,0-1.9-1.9,1.9,1.9,0,0,0,1.9,1.9" transform="translate(-113.682 -54.91)" fill="#d5ebeb"/><path d="M519.4,285.1a1.9,1.9,0,1,0-1.9-1.9,1.9,1.9,0,0,0,1.9,1.9" transform="translate(-117.342 -54.91)" fill="#d5ebeb"/><path d="M528.44,285.1a1.9,1.9,0,1,0-1.9-1.9,1.9,1.9,0,0,0,1.9,1.9" transform="translate(-121.003 -54.91)" fill="#d5ebeb"/><path d="M537.477,285.1a1.9,1.9,0,1,0-1.9-1.9,1.9,1.9,0,0,0,1.9,1.9" transform="translate(-124.664 -54.91)" fill="#d5ebeb"/><path d="M546.514,285.1a1.9,1.9,0,1,0-1.9-1.9,1.9,1.9,0,0,0,1.9,1.9" transform="translate(-128.324 -54.91)" fill="#d5ebeb"/><path d="M343.172,294.138a1.9,1.9,0,1,0-1.9-1.9,1.9,1.9,0,0,0,1.9,1.9" transform="translate(-45.959 -58.571)" fill="#d5ebeb"/><path d="M352.21,294.138a1.9,1.9,0,1,0-1.9-1.9,1.9,1.9,0,0,0,1.9,1.9" transform="translate(-49.62 -58.571)" fill="#d5ebeb"/><path d="M361.247,294.138a1.9,1.9,0,1,0-1.9-1.9,1.9,1.9,0,0,0,1.9,1.9" transform="translate(-53.28 -58.571)" fill="#d5ebeb"/><path d="M370.285,294.138a1.9,1.9,0,1,0-1.9-1.9,1.9,1.9,0,0,0,1.9,1.9" transform="translate(-56.941 -58.571)" fill="#d5ebeb"/><path d="M379.322,294.138a1.9,1.9,0,1,0-1.9-1.9,1.9,1.9,0,0,0,1.9,1.9" transform="translate(-60.602 -58.571)" fill="#d5ebeb"/><path d="M388.36,294.138a1.9,1.9,0,1,0-1.9-1.9,1.9,1.9,0,0,0,1.9,1.9" transform="translate(-64.263 -58.571)" fill="#d5ebeb"/><path d="M397.4,294.138a1.9,1.9,0,1,0-1.9-1.9,1.9,1.9,0,0,0,1.9,1.9" transform="translate(-67.923 -58.571)" fill="#d5ebeb"/><path d="M406.435,294.138a1.9,1.9,0,1,0-1.9-1.9,1.9,1.9,0,0,0,1.9,1.9" transform="translate(-71.584 -58.571)" fill="#d5ebeb"/><path d="M415.472,294.138a1.9,1.9,0,1,0-1.9-1.9,1.9,1.9,0,0,0,1.9,1.9" transform="translate(-75.245 -58.571)" fill="#d5ebeb"/><path d="M424.509,294.138a1.9,1.9,0,1,0-1.9-1.9,1.9,1.9,0,0,0,1.9,1.9" transform="translate(-78.905 -58.571)" fill="#d5ebeb"/><path d="M433.547,294.138a1.9,1.9,0,1,0-1.9-1.9,1.9,1.9,0,0,0,1.9,1.9" transform="translate(-82.566 -58.571)" fill="#d5ebeb"/><path d="M442.584,294.138a1.9,1.9,0,1,0-1.9-1.9,1.9,1.9,0,0,0,1.9,1.9" transform="translate(-86.227 -58.571)" fill="#d5ebeb"/><path d="M451.621,294.138a1.9,1.9,0,1,0-1.9-1.9,1.9,1.9,0,0,0,1.9,1.9" transform="translate(-89.887 -58.571)" fill="#d5ebeb"/><path d="M460.659,294.138a1.9,1.9,0,1,0-1.9-1.9,1.9,1.9,0,0,0,1.9,1.9" transform="translate(-93.548 -58.571)" fill="#d5ebeb"/><path d="M469.7,294.138a1.9,1.9,0,1,0-1.9-1.9,1.9,1.9,0,0,0,1.9,1.9" transform="translate(-97.209 -58.571)" fill="#d5ebeb"/><path d="M478.733,294.138a1.9,1.9,0,1,0-1.9-1.9,1.9,1.9,0,0,0,1.9,1.9" transform="translate(-100.869 -58.571)" fill="#d5ebeb"/><path d="M487.771,294.138a1.9,1.9,0,1,0-1.9-1.9,1.9,1.9,0,0,0,1.9,1.9" transform="translate(-104.53 -58.571)" fill="#d5ebeb"/><path d="M496.808,294.138a1.9,1.9,0,1,0-1.9-1.9,1.9,1.9,0,0,0,1.9,1.9" transform="translate(-108.191 -58.571)" fill="#d5ebeb"/><path d="M505.846,294.138a1.9,1.9,0,1,0-1.9-1.9,1.9,1.9,0,0,0,1.9,1.9" transform="translate(-111.851 -58.571)" fill="#d5ebeb"/><path d="M514.883,294.138a1.9,1.9,0,1,0-1.9-1.9,1.9,1.9,0,0,0,1.9,1.9" transform="translate(-115.512 -58.571)" fill="#d5ebeb"/><path d="M523.921,294.138a1.9,1.9,0,1,0-1.9-1.9,1.9,1.9,0,0,0,1.9,1.9" transform="translate(-119.173 -58.571)" fill="#d5ebeb"/><path d="M532.958,294.138a1.9,1.9,0,1,0-1.9-1.9,1.9,1.9,0,0,0,1.9,1.9" transform="translate(-122.834 -58.571)" fill="#d5ebeb"/><path d="M542,294.138a1.9,1.9,0,1,0-1.9-1.9,1.9,1.9,0,0,0,1.9,1.9" transform="translate(-126.494 -58.571)" fill="#d5ebeb"/><path d="M551.033,294.138a1.9,1.9,0,1,0-1.9-1.9,1.9,1.9,0,0,0,1.9,1.9" transform="translate(-130.155 -58.571)" fill="#d5ebeb"/><path d="M338.654,303.175a1.9,1.9,0,1,0-1.9-1.9,1.9,1.9,0,0,0,1.9,1.9" transform="translate(-44.129 -62.231)" fill="#d5ebeb"/><path d="M347.691,303.175a1.9,1.9,0,1,0-1.9-1.9,1.9,1.9,0,0,0,1.9,1.9" transform="translate(-47.789 -62.231)" fill="#d5ebeb"/><path d="M356.728,303.175a1.9,1.9,0,1,0-1.9-1.9,1.9,1.9,0,0,0,1.9,1.9" transform="translate(-51.45 -62.231)" fill="#d5ebeb"/><path d="M365.766,303.175a1.9,1.9,0,1,0-1.9-1.9,1.9,1.9,0,0,0,1.9,1.9" transform="translate(-55.111 -62.231)" fill="#d5ebeb"/><path d="M374.8,303.175a1.9,1.9,0,1,0-1.9-1.9,1.9,1.9,0,0,0,1.9,1.9" transform="translate(-58.771 -62.231)" fill="#d5ebeb"/><path d="M383.841,303.175a1.9,1.9,0,1,0-1.9-1.9,1.9,1.9,0,0,0,1.9,1.9" transform="translate(-62.432 -62.231)" fill="#d5ebeb"/><path d="M392.878,303.175a1.9,1.9,0,1,0-1.9-1.9,1.9,1.9,0,0,0,1.9,1.9" transform="translate(-66.093 -62.231)" fill="#d5ebeb"/><path d="M401.916,303.175a1.9,1.9,0,1,0-1.9-1.9,1.9,1.9,0,0,0,1.9,1.9" transform="translate(-69.754 -62.231)" fill="#d5ebeb"/><path d="M410.953,303.175a1.9,1.9,0,1,0-1.9-1.9,1.9,1.9,0,0,0,1.9,1.9" transform="translate(-73.414 -62.231)" fill="#d5ebeb"/><path d="M419.991,303.175a1.9,1.9,0,1,0-1.9-1.9,1.9,1.9,0,0,0,1.9,1.9" transform="translate(-77.075 -62.231)" fill="#d5ebeb"/><path d="M429.028,303.175a1.9,1.9,0,1,0-1.9-1.9,1.9,1.9,0,0,0,1.9,1.9" transform="translate(-80.736 -62.231)" fill="#d5ebeb"/><path d="M438.065,303.175a1.9,1.9,0,1,0-1.9-1.9,1.9,1.9,0,0,0,1.9,1.9" transform="translate(-84.396 -62.231)" fill="#d5ebeb"/><path d="M447.1,303.175a1.9,1.9,0,1,0-1.9-1.9,1.9,1.9,0,0,0,1.9,1.9" transform="translate(-88.057 -62.231)" fill="#d5ebeb"/><path d="M456.14,303.175a1.9,1.9,0,1,0-1.9-1.9,1.9,1.9,0,0,0,1.9,1.9" transform="translate(-91.718 -62.231)" fill="#d5ebeb"/><path d="M465.177,303.175a1.9,1.9,0,1,0-1.9-1.9,1.9,1.9,0,0,0,1.9,1.9" transform="translate(-95.378 -62.231)" fill="#d5ebeb"/><path d="M474.215,303.175a1.9,1.9,0,1,0-1.9-1.9,1.9,1.9,0,0,0,1.9,1.9" transform="translate(-99.039 -62.231)" fill="#d5ebeb"/><path d="M483.252,303.175a1.9,1.9,0,1,0-1.9-1.9,1.9,1.9,0,0,0,1.9,1.9" transform="translate(-102.7 -62.231)" fill="#d5ebeb"/><path d="M492.29,303.175a1.9,1.9,0,1,0-1.9-1.9,1.9,1.9,0,0,0,1.9,1.9" transform="translate(-106.36 -62.231)" fill="#d5ebeb"/><path d="M501.327,303.175a1.9,1.9,0,1,0-1.9-1.9,1.9,1.9,0,0,0,1.9,1.9" transform="translate(-110.021 -62.231)" fill="#d5ebeb"/><path d="M510.365,303.175a1.9,1.9,0,1,0-1.9-1.9,1.9,1.9,0,0,0,1.9,1.9" transform="translate(-113.682 -62.231)" fill="#d5ebeb"/><path d="M519.4,303.175a1.9,1.9,0,1,0-1.9-1.9,1.9,1.9,0,0,0,1.9,1.9" transform="translate(-117.342 -62.231)" fill="#d5ebeb"/><path d="M528.44,303.175a1.9,1.9,0,1,0-1.9-1.9,1.9,1.9,0,0,0,1.9,1.9" transform="translate(-121.003 -62.231)" fill="#d5ebeb"/><path d="M537.477,303.175a1.9,1.9,0,1,0-1.9-1.9,1.9,1.9,0,0,0,1.9,1.9" transform="translate(-124.664 -62.231)" fill="#d5ebeb"/><path d="M546.514,303.175a1.9,1.9,0,1,0-1.9-1.9,1.9,1.9,0,0,0,1.9,1.9" transform="translate(-128.324 -62.231)" fill="#d5ebeb"/><path d="M343.172,312.213a1.9,1.9,0,1,0-1.9-1.9,1.9,1.9,0,0,0,1.9,1.9" transform="translate(-45.959 -65.892)" fill="#d5ebeb"/><path d="M352.21,312.213a1.9,1.9,0,1,0-1.9-1.9,1.9,1.9,0,0,0,1.9,1.9" transform="translate(-49.62 -65.892)" fill="#d5ebeb"/><path d="M361.247,312.213a1.9,1.9,0,1,0-1.9-1.9,1.9,1.9,0,0,0,1.9,1.9" transform="translate(-53.28 -65.892)" fill="#d5ebeb"/><path d="M370.285,312.213a1.9,1.9,0,1,0-1.9-1.9,1.9,1.9,0,0,0,1.9,1.9" transform="translate(-56.941 -65.892)" fill="#d5ebeb"/><path d="M379.322,312.213a1.9,1.9,0,1,0-1.9-1.9,1.9,1.9,0,0,0,1.9,1.9" transform="translate(-60.602 -65.892)" fill="#d5ebeb"/><path d="M388.36,312.213a1.9,1.9,0,1,0-1.9-1.9,1.9,1.9,0,0,0,1.9,1.9" transform="translate(-64.263 -65.892)" fill="#d5ebeb"/><path d="M397.4,312.213a1.9,1.9,0,1,0-1.9-1.9,1.9,1.9,0,0,0,1.9,1.9" transform="translate(-67.923 -65.892)" fill="#d5ebeb"/><path d="M406.435,312.213a1.9,1.9,0,1,0-1.9-1.9,1.9,1.9,0,0,0,1.9,1.9" transform="translate(-71.584 -65.892)" fill="#d5ebeb"/><path d="M415.472,312.213a1.9,1.9,0,1,0-1.9-1.9,1.9,1.9,0,0,0,1.9,1.9" transform="translate(-75.245 -65.892)" fill="#d5ebeb"/><path d="M424.509,312.213a1.9,1.9,0,1,0-1.9-1.9,1.9,1.9,0,0,0,1.9,1.9" transform="translate(-78.905 -65.892)" fill="#d5ebeb"/><path d="M433.547,312.213a1.9,1.9,0,1,0-1.9-1.9,1.9,1.9,0,0,0,1.9,1.9" transform="translate(-82.566 -65.892)" fill="#d5ebeb"/><path d="M442.584,312.213a1.9,1.9,0,1,0-1.9-1.9,1.9,1.9,0,0,0,1.9,1.9" transform="translate(-86.227 -65.892)" fill="#d5ebeb"/><path d="M451.621,312.213a1.9,1.9,0,1,0-1.9-1.9,1.9,1.9,0,0,0,1.9,1.9" transform="translate(-89.887 -65.892)" fill="#d5ebeb"/><path d="M460.659,312.213a1.9,1.9,0,1,0-1.9-1.9,1.9,1.9,0,0,0,1.9,1.9" transform="translate(-93.548 -65.892)" fill="#d5ebeb"/><path d="M469.7,312.213a1.9,1.9,0,1,0-1.9-1.9,1.9,1.9,0,0,0,1.9,1.9" transform="translate(-97.209 -65.892)" fill="#d5ebeb"/><path d="M478.733,312.213a1.9,1.9,0,1,0-1.9-1.9,1.9,1.9,0,0,0,1.9,1.9" transform="translate(-100.869 -65.892)" fill="#d5ebeb"/><path d="M487.771,312.213a1.9,1.9,0,1,0-1.9-1.9,1.9,1.9,0,0,0,1.9,1.9" transform="translate(-104.53 -65.892)" fill="#d5ebeb"/><path d="M496.808,312.213a1.9,1.9,0,1,0-1.9-1.9,1.9,1.9,0,0,0,1.9,1.9" transform="translate(-108.191 -65.892)" fill="#d5ebeb"/><path d="M505.846,312.213a1.9,1.9,0,1,0-1.9-1.9,1.9,1.9,0,0,0,1.9,1.9" transform="translate(-111.851 -65.892)" fill="#d5ebeb"/><path d="M514.883,312.213a1.9,1.9,0,1,0-1.9-1.9,1.9,1.9,0,0,0,1.9,1.9" transform="translate(-115.512 -65.892)" fill="#d5ebeb"/><path d="M523.921,312.213a1.9,1.9,0,1,0-1.9-1.9,1.9,1.9,0,0,0,1.9,1.9" transform="translate(-119.173 -65.892)" fill="#d5ebeb"/><path d="M532.958,312.213a1.9,1.9,0,1,0-1.9-1.9,1.9,1.9,0,0,0,1.9,1.9" transform="translate(-122.834 -65.892)" fill="#d5ebeb"/><path d="M542,312.213a1.9,1.9,0,1,0-1.9-1.9,1.9,1.9,0,0,0,1.9,1.9" transform="translate(-126.494 -65.892)" fill="#d5ebeb"/><path d="M338.654,321.25a1.9,1.9,0,1,0-1.9-1.9,1.9,1.9,0,0,0,1.9,1.9" transform="translate(-44.129 -69.553)" fill="#d5ebeb"/><path d="M347.691,321.25a1.9,1.9,0,1,0-1.9-1.9,1.9,1.9,0,0,0,1.9,1.9" transform="translate(-47.789 -69.553)" fill="#d5ebeb"/><path d="M356.728,321.25a1.9,1.9,0,1,0-1.9-1.9,1.9,1.9,0,0,0,1.9,1.9" transform="translate(-51.45 -69.553)" fill="#d5ebeb"/><path d="M365.766,321.25a1.9,1.9,0,1,0-1.9-1.9,1.9,1.9,0,0,0,1.9,1.9" transform="translate(-55.111 -69.553)" fill="#d5ebeb"/><path d="M374.8,321.25a1.9,1.9,0,1,0-1.9-1.9,1.9,1.9,0,0,0,1.9,1.9" transform="translate(-58.771 -69.553)" fill="#d5ebeb"/><path d="M383.841,321.25a1.9,1.9,0,1,0-1.9-1.9,1.9,1.9,0,0,0,1.9,1.9" transform="translate(-62.432 -69.553)" fill="#d5ebeb"/><path d="M392.878,321.25a1.9,1.9,0,1,0-1.9-1.9,1.9,1.9,0,0,0,1.9,1.9" transform="translate(-66.093 -69.553)" fill="#d5ebeb"/><path d="M401.916,321.25a1.9,1.9,0,1,0-1.9-1.9,1.9,1.9,0,0,0,1.9,1.9" transform="translate(-69.754 -69.553)" fill="#d5ebeb"/><path d="M410.953,321.25a1.9,1.9,0,1,0-1.9-1.9,1.9,1.9,0,0,0,1.9,1.9" transform="translate(-73.414 -69.553)" fill="#d5ebeb"/><path d="M419.991,321.25a1.9,1.9,0,1,0-1.9-1.9,1.9,1.9,0,0,0,1.9,1.9" transform="translate(-77.075 -69.553)" fill="#d5ebeb"/><path d="M429.028,321.25a1.9,1.9,0,1,0-1.9-1.9,1.9,1.9,0,0,0,1.9,1.9" transform="translate(-80.736 -69.553)" fill="#d5ebeb"/><path d="M438.065,321.25a1.9,1.9,0,1,0-1.9-1.9,1.9,1.9,0,0,0,1.9,1.9" transform="translate(-84.396 -69.553)" fill="#d5ebeb"/><path d="M447.1,321.25a1.9,1.9,0,1,0-1.9-1.9,1.9,1.9,0,0,0,1.9,1.9" transform="translate(-88.057 -69.553)" fill="#d5ebeb"/><path d="M456.14,321.25a1.9,1.9,0,1,0-1.9-1.9,1.9,1.9,0,0,0,1.9,1.9" transform="translate(-91.718 -69.553)" fill="#d5ebeb"/><path d="M465.177,321.25a1.9,1.9,0,1,0-1.9-1.9,1.9,1.9,0,0,0,1.9,1.9" transform="translate(-95.378 -69.553)" fill="#d5ebeb"/><path d="M474.215,321.25a1.9,1.9,0,1,0-1.9-1.9,1.9,1.9,0,0,0,1.9,1.9" transform="translate(-99.039 -69.553)" fill="#d5ebeb"/><path d="M483.252,321.25a1.9,1.9,0,1,0-1.9-1.9,1.9,1.9,0,0,0,1.9,1.9" transform="translate(-102.7 -69.553)" fill="#d5ebeb"/><path d="M492.29,321.25a1.9,1.9,0,1,0-1.9-1.9,1.9,1.9,0,0,0,1.9,1.9" transform="translate(-106.36 -69.553)" fill="#d5ebeb"/><path d="M501.327,321.25a1.9,1.9,0,1,0-1.9-1.9,1.9,1.9,0,0,0,1.9,1.9" transform="translate(-110.021 -69.553)" fill="#d5ebeb"/><path d="M510.365,321.25a1.9,1.9,0,1,0-1.9-1.9,1.9,1.9,0,0,0,1.9,1.9" transform="translate(-113.682 -69.553)" fill="#d5ebeb"/><path d="M519.4,321.25a1.9,1.9,0,1,0-1.9-1.9,1.9,1.9,0,0,0,1.9,1.9" transform="translate(-117.342 -69.553)" fill="#d5ebeb"/><path d="M528.44,321.25a1.9,1.9,0,1,0-1.9-1.9,1.9,1.9,0,0,0,1.9,1.9" transform="translate(-121.003 -69.553)" fill="#d5ebeb"/><path d="M537.477,321.25a1.9,1.9,0,1,0-1.9-1.9,1.9,1.9,0,0,0,1.9,1.9" transform="translate(-124.664 -69.553)" fill="#d5ebeb"/><path d="M343.172,330.287a1.9,1.9,0,1,0-1.9-1.9,1.9,1.9,0,0,0,1.9,1.9" transform="translate(-45.959 -73.213)" fill="#d5ebeb"/><path d="M352.21,330.287a1.9,1.9,0,1,0-1.9-1.9,1.9,1.9,0,0,0,1.9,1.9" transform="translate(-49.62 -73.213)" fill="#d5ebeb"/><path d="M361.247,330.287a1.9,1.9,0,1,0-1.9-1.9,1.9,1.9,0,0,0,1.9,1.9" transform="translate(-53.28 -73.213)" fill="#d5ebeb"/><path d="M370.285,330.287a1.9,1.9,0,1,0-1.9-1.9,1.9,1.9,0,0,0,1.9,1.9" transform="translate(-56.941 -73.213)" fill="#d5ebeb"/><path d="M379.322,330.287a1.9,1.9,0,1,0-1.9-1.9,1.9,1.9,0,0,0,1.9,1.9" transform="translate(-60.602 -73.213)" fill="#d5ebeb"/><path d="M388.36,330.287a1.9,1.9,0,1,0-1.9-1.9,1.9,1.9,0,0,0,1.9,1.9" transform="translate(-64.263 -73.213)" fill="#d5ebeb"/><path d="M397.4,330.287a1.9,1.9,0,1,0-1.9-1.9,1.9,1.9,0,0,0,1.9,1.9" transform="translate(-67.923 -73.213)" fill="#d5ebeb"/><path d="M406.435,330.287a1.9,1.9,0,1,0-1.9-1.9,1.9,1.9,0,0,0,1.9,1.9" transform="translate(-71.584 -73.213)" fill="#d5ebeb"/><path d="M415.472,330.287a1.9,1.9,0,1,0-1.9-1.9,1.9,1.9,0,0,0,1.9,1.9" transform="translate(-75.245 -73.213)" fill="#d5ebeb"/><path d="M424.509,330.287a1.9,1.9,0,1,0-1.9-1.9,1.9,1.9,0,0,0,1.9,1.9" transform="translate(-78.905 -73.213)" fill="#d5ebeb"/><path d="M433.547,330.287a1.9,1.9,0,1,0-1.9-1.9,1.9,1.9,0,0,0,1.9,1.9" transform="translate(-82.566 -73.213)" fill="#d5ebeb"/><path d="M442.584,330.287a1.9,1.9,0,1,0-1.9-1.9,1.9,1.9,0,0,0,1.9,1.9" transform="translate(-86.227 -73.213)" fill="#d5ebeb"/><path d="M451.621,330.287a1.9,1.9,0,1,0-1.9-1.9,1.9,1.9,0,0,0,1.9,1.9" transform="translate(-89.887 -73.213)" fill="#d5ebeb"/><path d="M460.659,330.287a1.9,1.9,0,1,0-1.9-1.9,1.9,1.9,0,0,0,1.9,1.9" transform="translate(-93.548 -73.213)" fill="#d5ebeb"/><path d="M469.7,330.287a1.9,1.9,0,1,0-1.9-1.9,1.9,1.9,0,0,0,1.9,1.9" transform="translate(-97.209 -73.213)" fill="#d5ebeb"/><path d="M478.733,330.287a1.9,1.9,0,1,0-1.9-1.9,1.9,1.9,0,0,0,1.9,1.9" transform="translate(-100.869 -73.213)" fill="#d5ebeb"/><path d="M487.771,330.287a1.9,1.9,0,1,0-1.9-1.9,1.9,1.9,0,0,0,1.9,1.9" transform="translate(-104.53 -73.213)" fill="#d5ebeb"/><path d="M496.808,330.287a1.9,1.9,0,1,0-1.9-1.9,1.9,1.9,0,0,0,1.9,1.9" transform="translate(-108.191 -73.213)" fill="#d5ebeb"/><path d="M514.883,330.287a1.9,1.9,0,1,0-1.9-1.9,1.9,1.9,0,0,0,1.9,1.9" transform="translate(-115.512 -73.213)" fill="#d5ebeb"/><path d="M523.921,330.287a1.9,1.9,0,1,0-1.9-1.9,1.9,1.9,0,0,0,1.9,1.9" transform="translate(-119.173 -73.213)" fill="#d5ebeb"/><path d="M532.958,330.287a1.9,1.9,0,1,0-1.9-1.9,1.9,1.9,0,0,0,1.9,1.9" transform="translate(-122.834 -73.213)" fill="#d5ebeb"/><path d="M338.654,339.325a1.9,1.9,0,1,0-1.9-1.9,1.9,1.9,0,0,0,1.9,1.9" transform="translate(-44.129 -76.874)" fill="#d5ebeb"/><path d="M347.691,339.325a1.9,1.9,0,1,0-1.9-1.9,1.9,1.9,0,0,0,1.9,1.9" transform="translate(-47.789 -76.874)" fill="#d5ebeb"/><path d="M356.728,339.325a1.9,1.9,0,1,0-1.9-1.9,1.9,1.9,0,0,0,1.9,1.9" transform="translate(-51.45 -76.874)" fill="#d5ebeb"/><path d="M365.766,339.325a1.9,1.9,0,1,0-1.9-1.9,1.9,1.9,0,0,0,1.9,1.9" transform="translate(-55.111 -76.874)" fill="#d5ebeb"/><path d="M374.8,339.325a1.9,1.9,0,1,0-1.9-1.9,1.9,1.9,0,0,0,1.9,1.9" transform="translate(-58.771 -76.874)" fill="#d5ebeb"/><path d="M383.841,339.325a1.9,1.9,0,1,0-1.9-1.9,1.9,1.9,0,0,0,1.9,1.9" transform="translate(-62.432 -76.874)" fill="#d5ebeb"/><path d="M392.878,339.325a1.9,1.9,0,1,0-1.9-1.9,1.9,1.9,0,0,0,1.9,1.9" transform="translate(-66.093 -76.874)" fill="#d5ebeb"/><path d="M401.916,339.325a1.9,1.9,0,1,0-1.9-1.9,1.9,1.9,0,0,0,1.9,1.9" transform="translate(-69.754 -76.874)" fill="#d5ebeb"/><path d="M410.953,339.325a1.9,1.9,0,1,0-1.9-1.9,1.9,1.9,0,0,0,1.9,1.9" transform="translate(-73.414 -76.874)" fill="#d5ebeb"/><path d="M419.991,339.325a1.9,1.9,0,1,0-1.9-1.9,1.9,1.9,0,0,0,1.9,1.9" transform="translate(-77.075 -76.874)" fill="#d5ebeb"/><path d="M429.028,339.325a1.9,1.9,0,1,0-1.9-1.9,1.9,1.9,0,0,0,1.9,1.9" transform="translate(-80.736 -76.874)" fill="#d5ebeb"/><path d="M438.065,339.325a1.9,1.9,0,1,0-1.9-1.9,1.9,1.9,0,0,0,1.9,1.9" transform="translate(-84.396 -76.874)" fill="#d5ebeb"/><path d="M447.1,339.325a1.9,1.9,0,1,0-1.9-1.9,1.9,1.9,0,0,0,1.9,1.9" transform="translate(-88.057 -76.874)" fill="#d5ebeb"/><path d="M456.14,339.325a1.9,1.9,0,1,0-1.9-1.9,1.9,1.9,0,0,0,1.9,1.9" transform="translate(-91.718 -76.874)" fill="#d5ebeb"/><path d="M465.177,339.325a1.9,1.9,0,1,0-1.9-1.9,1.9,1.9,0,0,0,1.9,1.9" transform="translate(-95.378 -76.874)" fill="#d5ebeb"/><path d="M474.215,339.325a1.9,1.9,0,1,0-1.9-1.9,1.9,1.9,0,0,0,1.9,1.9" transform="translate(-99.039 -76.874)" fill="#d5ebeb"/><path d="M334.135,348.362a1.9,1.9,0,1,0-1.9-1.9,1.9,1.9,0,0,0,1.9,1.9" transform="translate(-42.298 -80.535)" fill="#d5ebeb"/><path d="M343.172,348.362a1.9,1.9,0,1,0-1.9-1.9,1.9,1.9,0,0,0,1.9,1.9" transform="translate(-45.959 -80.535)" fill="#d5ebeb"/><path d="M352.21,348.362a1.9,1.9,0,1,0-1.9-1.9,1.9,1.9,0,0,0,1.9,1.9" transform="translate(-49.62 -80.535)" fill="#d5ebeb"/><path d="M361.247,348.362a1.9,1.9,0,1,0-1.9-1.9,1.9,1.9,0,0,0,1.9,1.9" transform="translate(-53.28 -80.535)" fill="#d5ebeb"/><path d="M370.285,348.362a1.9,1.9,0,1,0-1.9-1.9,1.9,1.9,0,0,0,1.9,1.9" transform="translate(-56.941 -80.535)" fill="#d5ebeb"/><path d="M379.322,348.362a1.9,1.9,0,1,0-1.9-1.9,1.9,1.9,0,0,0,1.9,1.9" transform="translate(-60.602 -80.535)" fill="#d5ebeb"/><path d="M388.36,348.362a1.9,1.9,0,1,0-1.9-1.9,1.9,1.9,0,0,0,1.9,1.9" transform="translate(-64.263 -80.535)" fill="#d5ebeb"/><path d="M397.4,348.362a1.9,1.9,0,1,0-1.9-1.9,1.9,1.9,0,0,0,1.9,1.9" transform="translate(-67.923 -80.535)" fill="#d5ebeb"/><path d="M406.435,348.362a1.9,1.9,0,1,0-1.9-1.9,1.9,1.9,0,0,0,1.9,1.9" transform="translate(-71.584 -80.535)" fill="#d5ebeb"/><path d="M415.472,348.362a1.9,1.9,0,1,0-1.9-1.9,1.9,1.9,0,0,0,1.9,1.9" transform="translate(-75.245 -80.535)" fill="#d5ebeb"/><path d="M424.509,348.362a1.9,1.9,0,1,0-1.9-1.9,1.9,1.9,0,0,0,1.9,1.9" transform="translate(-78.905 -80.535)" fill="#d5ebeb"/><path d="M433.547,348.362a1.9,1.9,0,1,0-1.9-1.9,1.9,1.9,0,0,0,1.9,1.9" transform="translate(-82.566 -80.535)" fill="#d5ebeb"/><path d="M442.584,348.362a1.9,1.9,0,1,0-1.9-1.9,1.9,1.9,0,0,0,1.9,1.9" transform="translate(-86.227 -80.535)" fill="#d5ebeb"/><path d="M451.621,348.362a1.9,1.9,0,1,0-1.9-1.9,1.9,1.9,0,0,0,1.9,1.9" transform="translate(-89.887 -80.535)" fill="#d5ebeb"/><path d="M460.659,348.362a1.9,1.9,0,1,0-1.9-1.9,1.9,1.9,0,0,0,1.9,1.9" transform="translate(-93.548 -80.535)" fill="#d5ebeb"/><path d="M469.7,348.362a1.9,1.9,0,1,0-1.9-1.9,1.9,1.9,0,0,0,1.9,1.9" transform="translate(-97.209 -80.535)" fill="#d5ebeb"/><path d="M478.733,348.362a1.9,1.9,0,1,0-1.9-1.9,1.9,1.9,0,0,0,1.9,1.9" transform="translate(-100.869 -80.535)" fill="#d5ebeb"/><path d="M338.654,357.4a1.9,1.9,0,1,0-1.9-1.9,1.9,1.9,0,0,0,1.9,1.9" transform="translate(-44.129 -84.196)" fill="#d5ebeb"/><path d="M347.691,357.4a1.9,1.9,0,1,0-1.9-1.9,1.9,1.9,0,0,0,1.9,1.9" transform="translate(-47.789 -84.196)" fill="#d5ebeb"/><path d="M356.728,357.4a1.9,1.9,0,1,0-1.9-1.9,1.9,1.9,0,0,0,1.9,1.9" transform="translate(-51.45 -84.196)" fill="#d5ebeb"/><path d="M365.766,357.4a1.9,1.9,0,1,0-1.9-1.9,1.9,1.9,0,0,0,1.9,1.9" transform="translate(-55.111 -84.196)" fill="#d5ebeb"/><path d="M374.8,357.4a1.9,1.9,0,1,0-1.9-1.9,1.9,1.9,0,0,0,1.9,1.9" transform="translate(-58.771 -84.196)" fill="#d5ebeb"/><path d="M383.841,357.4a1.9,1.9,0,1,0-1.9-1.9,1.9,1.9,0,0,0,1.9,1.9" transform="translate(-62.432 -84.196)" fill="#d5ebeb"/><path d="M392.878,357.4a1.9,1.9,0,1,0-1.9-1.9,1.9,1.9,0,0,0,1.9,1.9" transform="translate(-66.093 -84.196)" fill="#d5ebeb"/><path d="M401.916,357.4a1.9,1.9,0,1,0-1.9-1.9,1.9,1.9,0,0,0,1.9,1.9" transform="translate(-69.754 -84.196)" fill="#d5ebeb"/><path d="M410.953,357.4a1.9,1.9,0,1,0-1.9-1.9,1.9,1.9,0,0,0,1.9,1.9" transform="translate(-73.414 -84.196)" fill="#d5ebeb"/><path d="M419.991,357.4a1.9,1.9,0,1,0-1.9-1.9,1.9,1.9,0,0,0,1.9,1.9" transform="translate(-77.075 -84.196)" fill="#d5ebeb"/><path d="M429.028,357.4a1.9,1.9,0,1,0-1.9-1.9,1.9,1.9,0,0,0,1.9,1.9" transform="translate(-80.736 -84.196)" fill="#d5ebeb"/><path d="M438.065,357.4a1.9,1.9,0,1,0-1.9-1.9,1.9,1.9,0,0,0,1.9,1.9" transform="translate(-84.396 -84.196)" fill="#d5ebeb"/><path d="M447.1,357.4a1.9,1.9,0,1,0-1.9-1.9,1.9,1.9,0,0,0,1.9,1.9" transform="translate(-88.057 -84.196)" fill="#d5ebeb"/><path d="M456.14,357.4a1.9,1.9,0,1,0-1.9-1.9,1.9,1.9,0,0,0,1.9,1.9" transform="translate(-91.718 -84.196)" fill="#d5ebeb"/><path d="M465.177,357.4a1.9,1.9,0,1,0-1.9-1.9,1.9,1.9,0,0,0,1.9,1.9" transform="translate(-95.378 -84.196)" fill="#d5ebeb"/><path d="M474.215,357.4a1.9,1.9,0,1,0-1.9-1.9,1.9,1.9,0,0,0,1.9,1.9" transform="translate(-99.039 -84.196)" fill="#d5ebeb"/><path d="M483.252,357.4a1.9,1.9,0,1,0-1.9-1.9,1.9,1.9,0,0,0,1.9,1.9" transform="translate(-102.7 -84.196)" fill="#d5ebeb"/><path d="M343.172,366.437a1.9,1.9,0,1,0-1.9-1.9,1.9,1.9,0,0,0,1.9,1.9" transform="translate(-45.959 -87.856)" fill="#d5ebeb"/><path d="M352.21,366.437a1.9,1.9,0,1,0-1.9-1.9,1.9,1.9,0,0,0,1.9,1.9" transform="translate(-49.62 -87.856)" fill="#d5ebeb"/><path d="M361.247,366.437a1.9,1.9,0,1,0-1.9-1.9,1.9,1.9,0,0,0,1.9,1.9" transform="translate(-53.28 -87.856)" fill="#d5ebeb"/><path d="M370.285,366.437a1.9,1.9,0,1,0-1.9-1.9,1.9,1.9,0,0,0,1.9,1.9" transform="translate(-56.941 -87.856)" fill="#d5ebeb"/><path d="M379.322,366.437a1.9,1.9,0,1,0-1.9-1.9,1.9,1.9,0,0,0,1.9,1.9" transform="translate(-60.602 -87.856)" fill="#d5ebeb"/><path d="M388.36,366.437a1.9,1.9,0,1,0-1.9-1.9,1.9,1.9,0,0,0,1.9,1.9" transform="translate(-64.263 -87.856)" fill="#d5ebeb"/><path d="M397.4,366.437a1.9,1.9,0,1,0-1.9-1.9,1.9,1.9,0,0,0,1.9,1.9" transform="translate(-67.923 -87.856)" fill="#d5ebeb"/><path d="M406.435,366.437a1.9,1.9,0,1,0-1.9-1.9,1.9,1.9,0,0,0,1.9,1.9" transform="translate(-71.584 -87.856)" fill="#d5ebeb"/><path d="M415.472,366.437a1.9,1.9,0,1,0-1.9-1.9,1.9,1.9,0,0,0,1.9,1.9" transform="translate(-75.245 -87.856)" fill="#d5ebeb"/><path d="M424.509,366.437a1.9,1.9,0,1,0-1.9-1.9,1.9,1.9,0,0,0,1.9,1.9" transform="translate(-78.905 -87.856)" fill="#d5ebeb"/><path d="M433.547,366.437a1.9,1.9,0,1,0-1.9-1.9,1.9,1.9,0,0,0,1.9,1.9" transform="translate(-82.566 -87.856)" fill="#d5ebeb"/><path d="M442.584,366.437a1.9,1.9,0,1,0-1.9-1.9,1.9,1.9,0,0,0,1.9,1.9" transform="translate(-86.227 -87.856)" fill="#d5ebeb"/><path d="M451.621,366.437a1.9,1.9,0,1,0-1.9-1.9,1.9,1.9,0,0,0,1.9,1.9" transform="translate(-89.887 -87.856)" fill="#d5ebeb"/><path d="M460.659,366.437a1.9,1.9,0,1,0-1.9-1.9,1.9,1.9,0,0,0,1.9,1.9" transform="translate(-93.548 -87.856)" fill="#d5ebeb"/><path d="M469.7,366.437a1.9,1.9,0,1,0-1.9-1.9,1.9,1.9,0,0,0,1.9,1.9" transform="translate(-97.209 -87.856)" fill="#d5ebeb"/><path d="M478.733,366.437a1.9,1.9,0,1,0-1.9-1.9,1.9,1.9,0,0,0,1.9,1.9" transform="translate(-100.869 -87.856)" fill="#d5ebeb"/><path d="M347.691,375.475a1.9,1.9,0,1,0-1.9-1.9,1.9,1.9,0,0,0,1.9,1.9" transform="translate(-47.789 -91.517)" fill="#d5ebeb"/><path d="M356.728,375.475a1.9,1.9,0,1,0-1.9-1.9,1.9,1.9,0,0,0,1.9,1.9" transform="translate(-51.45 -91.517)" fill="#d5ebeb"/><path d="M365.766,375.475a1.9,1.9,0,1,0-1.9-1.9,1.9,1.9,0,0,0,1.9,1.9" transform="translate(-55.111 -91.517)" fill="#d5ebeb"/><path d="M374.8,375.475a1.9,1.9,0,1,0-1.9-1.9,1.9,1.9,0,0,0,1.9,1.9" transform="translate(-58.771 -91.517)" fill="#d5ebeb"/><path d="M383.841,375.475a1.9,1.9,0,1,0-1.9-1.9,1.9,1.9,0,0,0,1.9,1.9" transform="translate(-62.432 -91.517)" fill="#d5ebeb"/><path d="M392.878,375.475a1.9,1.9,0,1,0-1.9-1.9,1.9,1.9,0,0,0,1.9,1.9" transform="translate(-66.093 -91.517)" fill="#d5ebeb"/><path d="M401.916,375.475a1.9,1.9,0,1,0-1.9-1.9,1.9,1.9,0,0,0,1.9,1.9" transform="translate(-69.754 -91.517)" fill="#d5ebeb"/><path d="M410.953,375.475a1.9,1.9,0,1,0-1.9-1.9,1.9,1.9,0,0,0,1.9,1.9" transform="translate(-73.414 -91.517)" fill="#d5ebeb"/><path d="M419.991,375.475a1.9,1.9,0,1,0-1.9-1.9,1.9,1.9,0,0,0,1.9,1.9" transform="translate(-77.075 -91.517)" fill="#d5ebeb"/><path d="M429.028,375.475a1.9,1.9,0,1,0-1.9-1.9,1.9,1.9,0,0,0,1.9,1.9" transform="translate(-80.736 -91.517)" fill="#d5ebeb"/><path d="M438.065,375.475a1.9,1.9,0,1,0-1.9-1.9,1.9,1.9,0,0,0,1.9,1.9" transform="translate(-84.396 -91.517)" fill="#d5ebeb"/><path d="M447.1,375.475a1.9,1.9,0,1,0-1.9-1.9,1.9,1.9,0,0,0,1.9,1.9" transform="translate(-88.057 -91.517)" fill="#d5ebeb"/><path d="M456.14,375.475a1.9,1.9,0,1,0-1.9-1.9,1.9,1.9,0,0,0,1.9,1.9" transform="translate(-91.718 -91.517)" fill="#d5ebeb"/><path d="M465.177,375.475a1.9,1.9,0,1,0-1.9-1.9,1.9,1.9,0,0,0,1.9,1.9" transform="translate(-95.378 -91.517)" fill="#d5ebeb"/><path d="M361.247,384.512a1.9,1.9,0,1,0-1.9-1.9,1.9,1.9,0,0,0,1.9,1.9" transform="translate(-53.28 -95.178)" fill="#d5ebeb"/><path d="M370.285,384.512a1.9,1.9,0,1,0-1.9-1.9,1.9,1.9,0,0,0,1.9,1.9" transform="translate(-56.941 -95.178)" fill="#d5ebeb"/><path d="M379.322,384.512a1.9,1.9,0,1,0-1.9-1.9,1.9,1.9,0,0,0,1.9,1.9" transform="translate(-60.602 -95.178)" fill="#d5ebeb"/><path d="M388.36,384.512a1.9,1.9,0,1,0-1.9-1.9,1.9,1.9,0,0,0,1.9,1.9" transform="translate(-64.263 -95.178)" fill="#d5ebeb"/><path d="M397.4,384.512a1.9,1.9,0,1,0-1.9-1.9,1.9,1.9,0,0,0,1.9,1.9" transform="translate(-67.923 -95.178)" fill="#d5ebeb"/><path d="M406.435,384.512a1.9,1.9,0,1,0-1.9-1.9,1.9,1.9,0,0,0,1.9,1.9" transform="translate(-71.584 -95.178)" fill="#d5ebeb"/><path d="M415.472,384.512a1.9,1.9,0,1,0-1.9-1.9,1.9,1.9,0,0,0,1.9,1.9" transform="translate(-75.245 -95.178)" fill="#d5ebeb"/><path d="M424.509,384.512a1.9,1.9,0,1,0-1.9-1.9,1.9,1.9,0,0,0,1.9,1.9" transform="translate(-78.905 -95.178)" fill="#d5ebeb"/><path d="M433.547,384.512a1.9,1.9,0,1,0-1.9-1.9,1.9,1.9,0,0,0,1.9,1.9" transform="translate(-82.566 -95.178)" fill="#d5ebeb"/><path d="M442.584,384.512a1.9,1.9,0,1,0-1.9-1.9,1.9,1.9,0,0,0,1.9,1.9" transform="translate(-86.227 -95.178)" fill="#d5ebeb"/><path d="M451.621,384.512a1.9,1.9,0,1,0-1.9-1.9,1.9,1.9,0,0,0,1.9,1.9" transform="translate(-89.887 -95.178)" fill="#d5ebeb"/><path d="M460.659,384.512a1.9,1.9,0,1,0-1.9-1.9,1.9,1.9,0,0,0,1.9,1.9" transform="translate(-93.548 -95.178)" fill="#d5ebeb"/><path d="M469.7,384.512a1.9,1.9,0,1,0-1.9-1.9,1.9,1.9,0,0,0,1.9,1.9" transform="translate(-97.209 -95.178)" fill="#d5ebeb"/><path d="M365.766,393.55a1.9,1.9,0,1,0-1.9-1.9,1.9,1.9,0,0,0,1.9,1.9" transform="translate(-55.111 -98.839)" fill="#d5ebeb"/><path d="M374.8,393.55a1.9,1.9,0,1,0-1.9-1.9,1.9,1.9,0,0,0,1.9,1.9" transform="translate(-58.771 -98.839)" fill="#d5ebeb"/><path d="M383.841,393.55a1.9,1.9,0,1,0-1.9-1.9,1.9,1.9,0,0,0,1.9,1.9" transform="translate(-62.432 -98.839)" fill="#d5ebeb"/><path d="M392.878,393.55a1.9,1.9,0,1,0-1.9-1.9,1.9,1.9,0,0,0,1.9,1.9" transform="translate(-66.093 -98.839)" fill="#d5ebeb"/><path d="M401.916,393.55a1.9,1.9,0,1,0-1.9-1.9,1.9,1.9,0,0,0,1.9,1.9" transform="translate(-69.754 -98.839)" fill="#d5ebeb"/><path d="M410.953,393.55a1.9,1.9,0,1,0-1.9-1.9,1.9,1.9,0,0,0,1.9,1.9" transform="translate(-73.414 -98.839)" fill="#d5ebeb"/><path d="M419.991,393.55a1.9,1.9,0,1,0-1.9-1.9,1.9,1.9,0,0,0,1.9,1.9" transform="translate(-77.075 -98.839)" fill="#d5ebeb"/><path d="M429.028,393.55a1.9,1.9,0,1,0-1.9-1.9,1.9,1.9,0,0,0,1.9,1.9" transform="translate(-80.736 -98.839)" fill="#d5ebeb"/><path d="M438.065,393.55a1.9,1.9,0,1,0-1.9-1.9,1.9,1.9,0,0,0,1.9,1.9" transform="translate(-84.396 -98.839)" fill="#d5ebeb"/><path d="M447.1,393.55a1.9,1.9,0,1,0-1.9-1.9,1.9,1.9,0,0,0,1.9,1.9" transform="translate(-88.057 -98.839)" fill="#d5ebeb"/><path d="M456.14,393.55a1.9,1.9,0,1,0-1.9-1.9,1.9,1.9,0,0,0,1.9,1.9" transform="translate(-91.718 -98.839)" fill="#d5ebeb"/><path d="M465.177,393.55a1.9,1.9,0,1,0-1.9-1.9,1.9,1.9,0,0,0,1.9,1.9" transform="translate(-95.378 -98.839)" fill="#d5ebeb"/><path d="M474.215,393.55a1.9,1.9,0,1,0-1.9-1.9,1.9,1.9,0,0,0,1.9,1.9" transform="translate(-99.039 -98.839)" fill="#d5ebeb"/><path d="M379.322,402.587a1.9,1.9,0,1,0-1.9-1.9,1.9,1.9,0,0,0,1.9,1.9" transform="translate(-60.602 -102.499)" fill="#d5ebeb"/><path d="M388.36,402.587a1.9,1.9,0,1,0-1.9-1.9,1.9,1.9,0,0,0,1.9,1.9" transform="translate(-64.263 -102.499)" fill="#d5ebeb"/><path d="M397.4,402.587a1.9,1.9,0,1,0-1.9-1.9,1.9,1.9,0,0,0,1.9,1.9" transform="translate(-67.923 -102.499)" fill="#d5ebeb"/><path d="M406.435,402.587a1.9,1.9,0,1,0-1.9-1.9,1.9,1.9,0,0,0,1.9,1.9" transform="translate(-71.584 -102.499)" fill="#d5ebeb"/><path d="M415.472,402.587a1.9,1.9,0,1,0-1.9-1.9,1.9,1.9,0,0,0,1.9,1.9" transform="translate(-75.245 -102.499)" fill="#d5ebeb"/><path d="M424.509,402.587a1.9,1.9,0,1,0-1.9-1.9,1.9,1.9,0,0,0,1.9,1.9" transform="translate(-78.905 -102.499)" fill="#d5ebeb"/><path d="M433.547,402.587a1.9,1.9,0,1,0-1.9-1.9,1.9,1.9,0,0,0,1.9,1.9" transform="translate(-82.566 -102.499)" fill="#d5ebeb"/><path d="M442.584,402.587a1.9,1.9,0,1,0-1.9-1.9,1.9,1.9,0,0,0,1.9,1.9" transform="translate(-86.227 -102.499)" fill="#d5ebeb"/><path d="M451.621,402.587a1.9,1.9,0,1,0-1.9-1.9,1.9,1.9,0,0,0,1.9,1.9" transform="translate(-89.887 -102.499)" fill="#d5ebeb"/><path d="M460.659,402.587a1.9,1.9,0,1,0-1.9-1.9,1.9,1.9,0,0,0,1.9,1.9" transform="translate(-93.548 -102.499)" fill="#d5ebeb"/><path d="M469.7,402.587a1.9,1.9,0,1,0-1.9-1.9,1.9,1.9,0,0,0,1.9,1.9" transform="translate(-97.209 -102.499)" fill="#d5ebeb"/><path d="M383.841,411.624a1.9,1.9,0,1,0-1.9-1.9,1.9,1.9,0,0,0,1.9,1.9" transform="translate(-62.432 -106.16)" fill="#d5ebeb"/><path d="M392.878,411.624a1.9,1.9,0,1,0-1.9-1.9,1.9,1.9,0,0,0,1.9,1.9" transform="translate(-66.093 -106.16)" fill="#d5ebeb"/><path d="M401.916,411.624a1.9,1.9,0,1,0-1.9-1.9,1.9,1.9,0,0,0,1.9,1.9" transform="translate(-69.754 -106.16)" fill="#d5ebeb"/><path d="M410.953,411.624a1.9,1.9,0,1,0-1.9-1.9,1.9,1.9,0,0,0,1.9,1.9" transform="translate(-73.414 -106.16)" fill="#d5ebeb"/><path d="M419.991,411.624a1.9,1.9,0,1,0-1.9-1.9,1.9,1.9,0,0,0,1.9,1.9" transform="translate(-77.075 -106.16)" fill="#d5ebeb"/><path d="M429.028,411.624a1.9,1.9,0,1,0-1.9-1.9,1.9,1.9,0,0,0,1.9,1.9" transform="translate(-80.736 -106.16)" fill="#d5ebeb"/><path d="M438.065,411.624a1.9,1.9,0,1,0-1.9-1.9,1.9,1.9,0,0,0,1.9,1.9" transform="translate(-84.396 -106.16)" fill="#d5ebeb"/><path d="M447.1,411.624a1.9,1.9,0,1,0-1.9-1.9,1.9,1.9,0,0,0,1.9,1.9" transform="translate(-88.057 -106.16)" fill="#d5ebeb"/><path d="M456.14,411.624a1.9,1.9,0,1,0-1.9-1.9,1.9,1.9,0,0,0,1.9,1.9" transform="translate(-91.718 -106.16)" fill="#d5ebeb"/><path d="M465.177,411.624a1.9,1.9,0,1,0-1.9-1.9,1.9,1.9,0,0,0,1.9,1.9" transform="translate(-95.378 -106.16)" fill="#d5ebeb"/><path d="M379.322,420.662a1.9,1.9,0,1,0-1.9-1.9,1.9,1.9,0,0,0,1.9,1.9" transform="translate(-60.602 -109.821)" fill="#d5ebeb"/><path d="M388.36,420.662a1.9,1.9,0,1,0-1.9-1.9,1.9,1.9,0,0,0,1.9,1.9" transform="translate(-64.263 -109.821)" fill="#d5ebeb"/><path d="M397.4,420.662a1.9,1.9,0,1,0-1.9-1.9,1.9,1.9,0,0,0,1.9,1.9" transform="translate(-67.923 -109.821)" fill="#d5ebeb"/><path d="M406.435,420.662a1.9,1.9,0,1,0-1.9-1.9,1.9,1.9,0,0,0,1.9,1.9" transform="translate(-71.584 -109.821)" fill="#d5ebeb"/><path d="M415.472,420.662a1.9,1.9,0,1,0-1.9-1.9,1.9,1.9,0,0,0,1.9,1.9" transform="translate(-75.245 -109.821)" fill="#d5ebeb"/><path d="M424.509,420.662a1.9,1.9,0,1,0-1.9-1.9,1.9,1.9,0,0,0,1.9,1.9" transform="translate(-78.905 -109.821)" fill="#d5ebeb"/><path d="M433.547,420.662a1.9,1.9,0,1,0-1.9-1.9,1.9,1.9,0,0,0,1.9,1.9" transform="translate(-82.566 -109.821)" fill="#d5ebeb"/><path d="M442.584,420.662a1.9,1.9,0,1,0-1.9-1.9,1.9,1.9,0,0,0,1.9,1.9" transform="translate(-86.227 -109.821)" fill="#d5ebeb"/><path d="M451.621,420.662a1.9,1.9,0,1,0-1.9-1.9,1.9,1.9,0,0,0,1.9,1.9" transform="translate(-89.887 -109.821)" fill="#d5ebeb"/><path d="M460.659,420.662a1.9,1.9,0,1,0-1.9-1.9,1.9,1.9,0,0,0,1.9,1.9" transform="translate(-93.548 -109.821)" fill="#d5ebeb"/><path d="M392.878,429.7a1.9,1.9,0,1,0-1.9-1.9,1.9,1.9,0,0,0,1.9,1.9" transform="translate(-66.093 -113.481)" fill="#d5ebeb"/><path d="M401.916,429.7a1.9,1.9,0,1,0-1.9-1.9,1.9,1.9,0,0,0,1.9,1.9" transform="translate(-69.754 -113.481)" fill="#d5ebeb"/><path d="M419.991,429.7a1.9,1.9,0,1,0-1.9-1.9,1.9,1.9,0,0,0,1.9,1.9" transform="translate(-77.075 -113.481)" fill="#d5ebeb"/><path d="M429.028,429.7a1.9,1.9,0,1,0-1.9-1.9,1.9,1.9,0,0,0,1.9,1.9" transform="translate(-80.736 -113.481)" fill="#d5ebeb"/><path d="M438.065,429.7a1.9,1.9,0,1,0-1.9-1.9,1.9,1.9,0,0,0,1.9,1.9" transform="translate(-84.396 -113.481)" fill="#d5ebeb"/><path d="M447.1,429.7a1.9,1.9,0,1,0-1.9-1.9,1.9,1.9,0,0,0,1.9,1.9" transform="translate(-88.057 -113.481)" fill="#d5ebeb"/><path d="M456.14,429.7a1.9,1.9,0,1,0-1.9-1.9,1.9,1.9,0,0,0,1.9,1.9" transform="translate(-91.718 -113.481)" fill="#d5ebeb"/><path d="M465.177,429.7a1.9,1.9,0,1,0-1.9-1.9,1.9,1.9,0,0,0,1.9,1.9" transform="translate(-95.378 -113.481)" fill="#d5ebeb"/><path d="M451.621,438.736a1.9,1.9,0,1,0-1.9-1.9,1.9,1.9,0,0,0,1.9,1.9" transform="translate(-89.887 -117.142)" fill="#d5ebeb"/><path d="M290.186,287.019h-2.173v11.423h-6.429V266.576H294.3c7.308,0,10.452,5.18,10.452,10.407,0,4.532-2.359,8.6-7.723,9.712l8.278,11.748h-7.538Zm-2.173-5.18h5.134c3.607,0,5.134-2.174,5.134-4.718a4.549,4.549,0,0,0-4.624-4.857h-5.643Z" transform="translate(-21.782 -48.947)" fill="#40463e"/><path d="M351.269,292.754v5.689h-20.4V266.576h19.98v5.688H337.3v7.585h11.886v5.782H337.3v7.123Z" transform="translate(-41.747 -48.947)" fill="#40463e"/><path d="M372.388,282.25a16.207,16.207,0,0,1,16.281-16.373,15.726,15.726,0,0,1,11.793,5.087l-4.671,4.024a9.721,9.721,0,0,0-7.123-3.145,10.106,10.106,0,0,0-9.852,10.407c0,5.689,4.3,10.591,9.852,10.591,4.162,0,7.446-1.989,8.278-5.319a3.853,3.853,0,0,0,.186-.785h-9.019v-5.227h16.049c0,11.794-6.336,17.067-15.493,17.067a16.2,16.2,0,0,1-16.281-16.326" transform="translate(-58.563 -48.664)" fill="#40463e"/><rect width="6.429" height="31.867" transform="translate(351.52 217.629)" fill="#40463e"/><path d="M456.193,282.25a16.211,16.211,0,1,1,16.188,16.326,16.187,16.187,0,0,1-16.188-16.326m25.947,0c0-5.736-4.07-10.314-9.759-10.314-5.735,0-9.759,4.579-9.759,10.314s4.024,10.314,9.759,10.314c5.689,0,9.759-4.579,9.759-10.314" transform="translate(-92.509 -48.664)" fill="#40463e"/><path d="M544.1,266.576v31.867h-5.781l-11.563-19.98v19.98h-6.428V266.576H526.3l11.378,19.748V266.576Z" transform="translate(-118.489 -48.947)" fill="#40463e"/><path d="M308.226,224.356a6.623,6.623,0,0,1,6.653-6.691,6.427,6.427,0,0,1,4.82,2.079l-1.909,1.644a3.973,3.973,0,0,0-2.91-1.284,4.129,4.129,0,0,0-4.026,4.252,4.2,4.2,0,0,0,4.026,4.329,3.206,3.206,0,0,0,3.383-2.174,1.594,1.594,0,0,0,.076-.322h-3.685v-2.135h6.558c0,4.82-2.589,6.974-6.331,6.974a6.619,6.619,0,0,1-6.653-6.672" transform="translate(-32.574 -29.135)" fill="#40463e"/><path d="M339.418,224.938l-.567,2.363a2.571,2.571,0,0,0-1.266-.321c-1.267,0-2.136,1.172-2.136,3.686v3.024h-2.476v-8.807h2.457v1.871a2.692,2.692,0,0,1,2.589-2.1,3.147,3.147,0,0,1,1.4.284" transform="translate(-42.598 -31.966)" fill="#40463e"/><path d="M345.139,229.266a4.747,4.747,0,1,1,4.745,4.593,4.587,4.587,0,0,1-4.745-4.593m6.974,0a2.231,2.231,0,1,0-2.229,2.287,2.206,2.206,0,0,0,2.229-2.287" transform="translate(-47.525 -31.966)" fill="#40463e"/><path d="M373.62,226.631c0,2.438-1.852,4.1-4.612,4.1a4.946,4.946,0,0,1-1.455-.208l.548-2.155a3.161,3.161,0,0,0,1,.15,2.03,2.03,0,0,0,2-2.154,2.007,2.007,0,0,0-2.174-2.022h-.7v-2.192h.434a1.355,1.355,0,0,0,1.3-1.512,1.329,1.329,0,0,0-1.493-1.361c-.982,0-1.644.737-1.644,2.173v9.11h-2.476v-9.11c0-2.816,1.682-4.517,4.176-4.517,2.363,0,3.951,1.36,3.951,3.4a2.759,2.759,0,0,1-1.626,2.552,3.642,3.642,0,0,1,2.76,3.742" transform="translate(-55.311 -28.839)" fill="#40463e"/><rect width="13.571" height="2.136" transform="translate(324.736 196.091)" fill="#40463e"/><path d="M423.86,224.356a6.623,6.623,0,0,1,6.653-6.691,6.427,6.427,0,0,1,4.82,2.079l-1.909,1.644a3.973,3.973,0,0,0-2.91-1.284,4.129,4.129,0,0,0-4.026,4.252,4.2,4.2,0,0,0,4.026,4.329,3.206,3.206,0,0,0,3.383-2.174,1.6,1.6,0,0,0,.076-.322h-3.685v-2.135h6.558c0,4.82-2.589,6.974-6.331,6.974a6.619,6.619,0,0,1-6.653-6.672" transform="translate(-79.412 -29.135)" fill="#40463e"/><path d="M455.053,224.938l-.567,2.363a2.571,2.571,0,0,0-1.266-.321c-1.267,0-2.136,1.172-2.136,3.686v3.024h-2.476v-8.807h2.457v1.871a2.692,2.692,0,0,1,2.589-2.1,3.148,3.148,0,0,1,1.4.284" transform="translate(-89.437 -31.966)" fill="#40463e"/><path d="M470.446,224.895V233.7H467.97v-1.1a3.6,3.6,0,0,1-2.836,1.266,4.6,4.6,0,0,1,0-9.185,3.487,3.487,0,0,1,2.836,1.266v-1.058Zm-2.552,4.385a2.287,2.287,0,1,0-2.287,2.287,2.277,2.277,0,0,0,2.287-2.287" transform="translate(-94.378 -31.979)" fill="#40463e"/><path d="M489.819,228.85v4.839h-2.476v-4.575c0-1.4-.832-2.022-1.682-2.022a1.88,1.88,0,0,0-1.985,2.079v4.517H481.2v-8.807h2.476v1.474a2.835,2.835,0,0,1,2.646-1.7c2.306,0,3.516,1.55,3.5,4.2" transform="translate(-102.638 -31.966)" fill="#40463e"/><path d="M508.44,217.126v13.513h-2.476v-1.1a3.6,3.6,0,0,1-2.836,1.266,4.6,4.6,0,0,1,0-9.185,3.488,3.488,0,0,1,2.836,1.266v-5.764Zm-2.552,9.091A2.287,2.287,0,1,0,503.6,228.5a2.277,2.277,0,0,0,2.287-2.287" transform="translate(-109.767 -28.916)" fill="#40463e"/><path d="M527.529,230.079h-6.653a2.144,2.144,0,0,0,2.287,1.588,3.061,3.061,0,0,0,2.306-.983l1.455,1.455a4.926,4.926,0,0,1-3.931,1.72,4.446,4.446,0,0,1-4.687-4.575,4.511,4.511,0,0,1,4.687-4.63,4.395,4.395,0,0,1,4.575,4.48c0,.246-.019.548-.038.945m-2.438-1.606a1.871,1.871,0,0,0-2.06-1.663,2.032,2.032,0,0,0-2.155,1.663Z" transform="translate(-117.669 -31.966)" fill="#40463e"/><path d="M598.092,250.151h-7.848V233.959H574.1v-7.848h23.99Z" transform="translate(-140.269 -32.556)" fill="#dc0217"/><path d="M251.8,343.983H227.81V319.943h7.847v16.191H251.8Z" transform="translate(0 -70.564)" fill="#dc0217"/></g></svg>